# 3ds Max Wavefront OBJ Exporter v0.94b - (c)2007 guruware
# File Created: 30.09.2009 01:37:18

#
# object lever
#

v  -0.0358 0.1338 0.0923
v  -0.0358 0.1338 -0.0923
v  -0.0759 0.1338 -0.0923
v  -0.0759 0.1338 0.0923
v  -0.0358 0.0000 0.2000
v  -0.0358 0.0538 0.1370
v  -0.0759 0.0348 0.1479
v  -0.1381 0.0000 0.2000
v  -0.1381 0.0000 -0.2000
v  -0.0759 0.0348 -0.1479
v  0.0358 0.0000 0.2000
v  0.0358 0.0538 0.1370
v  -0.0358 0.0000 -0.2000
v  -0.0358 0.0538 -0.1370
v  0.0358 0.0538 -0.1370
v  0.0358 0.0000 -0.2000
v  0.0358 0.1338 0.0923
v  0.0759 0.1338 0.0923
v  0.0759 0.1338 -0.0923
v  0.0358 0.1338 -0.0923
v  0.1381 0.0000 0.2000
v  0.0759 0.0348 0.1479
v  0.1381 0.0000 -0.2000
v  0.0759 0.0348 -0.1479
v  -0.0927 0.0757 -0.0183
v  -0.0927 0.0662 0.0078
v  -0.0927 0.0923 0.0173
v  -0.0927 0.1018 -0.0088
v  -0.0000 0.0249 0.0437
v  0.0000 0.3801 -0.1224
v  -0.0145 0.3740 -0.1356
v  -0.0145 0.0188 0.0305
v  -0.0235 0.4741 -0.1823
v  0.0000 0.4641 -0.2036
v  0.0000 0.3523 -0.1559
v  -0.0275 0.3640 -0.1309
v  0.0000 0.4801 -0.1970
v  -0.0108 0.4847 -0.1872
v  0.0000 0.3756 -0.1060
v  0.0000 0.1018 -0.0088
v  -0.0000 0.0757 -0.0183
v  -0.0000 0.0662 0.0078
v  0.0000 0.0923 0.0173
v  0.0000 0.3678 -0.1488
v  -0.0000 0.0126 0.0173
v  0.0000 0.4840 -0.1610
v  0.0000 0.4892 -0.1774
v  0.0927 0.0757 -0.0183
v  0.0927 0.1018 -0.0088
v  0.0927 0.0923 0.0173
v  0.0927 0.0662 0.0078
v  0.0145 0.0188 0.0305
v  0.0145 0.3740 -0.1356
v  0.0235 0.4741 -0.1823
v  0.0275 0.3640 -0.1309
v  0.0108 0.4847 -0.1872
# 56 vertices

vn 0.0006 0.8629 0.5053
vn 0.0000 0.8626 -0.5059
vn 0.0006 0.8627 -0.5057
vn 0.0000 0.8630 0.5052
vn -0.0335 0.7838 0.6201
vn -0.0751 0.7581 0.6478
vn -0.0947 0.7927 0.6022
vn 0.0000 0.8317 0.5552
vn -0.4884 0.8726 0.0000
vn -0.4884 0.8726 -0.0000
vn 0.0335 0.7838 0.6201
vn 0.0751 0.7581 0.6478
vn -0.0335 0.7838 -0.6201
vn 0.0000 0.8317 -0.5552
vn -0.0947 0.7927 -0.6022
vn -0.0751 0.7581 -0.6478
vn 0.0035 0.4885 0.8725
vn 0.0051 0.4880 0.8728
vn 1.0000 0.0000 -0.0000
vn 0.0033 0.4893 -0.8721
vn 0.0041 0.4896 -0.8719
vn -1.0000 0.0000 0.0000
vn 0.0751 0.7581 -0.6478
vn 0.0335 0.7838 -0.6201
vn -0.0006 0.8629 0.5053
vn -0.0006 0.8627 -0.5057
vn 0.0947 0.7927 0.6022
vn 0.4884 0.8726 0.0000
vn 0.4884 0.8726 -0.0000
vn 0.0000 1.0000 -0.0000
vn 0.0947 0.7927 -0.6022
vn -0.0035 0.4885 0.8725
vn -0.0051 0.4880 0.8728
vn -1.0000 0.0000 -0.0000
vn -0.0033 0.4893 -0.8721
vn -0.0041 0.4896 -0.8719
vn 1.0000 0.0000 0.0000
vn -0.0000 0.4236 0.9059
vn 0.0000 0.4236 0.9059
vn -1.0000 -0.0002 -0.0004
vn -1.0000 0.0002 0.0004
vn -0.9995 0.0300 -0.0140
vn 0.0000 -0.3924 -0.9198
vn -0.0000 -0.3924 -0.9198
vn -0.5608 0.3150 -0.7657
vn 0.5442 -0.8087 -0.2234
vn 0.0000 -0.4226 -0.9063
vn 0.0000 0.9063 -0.4226
vn -0.0000 -0.4226 -0.9063
vn -0.0000 -0.9063 0.4226
vn 0.0000 0.4226 0.9063
vn 0.0000 -0.4236 -0.9059
vn -0.0000 -0.4236 -0.9059
vn -0.0000 0.4524 0.8918
vn 0.0000 0.4524 0.8918
vn -0.5608 0.7890 0.2509
vn 0.5442 -0.3487 0.7631
vn 1.0000 0.0002 0.0004
vn 1.0000 -0.0002 -0.0004
vn 0.9995 0.0300 -0.0140
vn 0.5608 0.3150 -0.7657
vn -0.5442 -0.8087 -0.2234
vn -0.0000 0.9063 -0.4226
vn -0.0000 0.4226 0.9063
vn 0.5608 0.7890 0.2509
vn -0.5442 -0.3487 0.7631
# 66 vertex normals

vt 0.7410 0.8084 0.9995
vt 0.7410 2.1916 0.9995
vt 0.4507 2.1916 0.9995
vt 0.4507 0.8084 0.9995
vt 0.7410 0.0015 0.0005
vt 0.7410 0.3919 0.4023
vt 0.4507 0.3919 0.2602
vt 0.0010 0.0015 0.0005
vt 0.0010 2.9985 0.0005
vt 0.4507 2.6081 0.2602
vt 1.2590 0.0015 0.0005
vt 1.2590 0.3919 0.4023
vt 0.7410 2.9985 0.0005
vt 0.7410 2.6081 0.4023
vt 0.0005 0.6656 1.9924
vt 0.2645 0.7942 1.9924
vt 0.2645 1.3344 1.4314
vt 0.0005 1.3344 1.4314
vt 0.2995 0.0010 0.8612
vt 0.2995 1.9990 0.8612
vt 0.8257 1.6235 0.8612
vt 0.8257 0.3765 0.8612
vt 0.2645 0.7942 -0.9924
vt 0.0005 0.6656 -0.9924
vt 0.0005 1.3344 -0.4314
vt 0.2645 1.3344 -0.4314
vt 0.1743 1.9990 1.2661
vt 0.1743 0.0010 1.2661
vt 0.8257 0.3765 1.2661
vt 0.8257 1.6235 1.2661
vt 1.2590 2.6081 0.4023
vt 1.2590 2.9985 0.0005
vt 1.2590 0.8084 0.9995
vt 1.5493 0.8084 0.9995
vt 1.5493 2.1916 0.9995
vt 1.2590 2.1916 0.9995
vt 1.9990 0.0015 0.0005
vt 1.5493 0.3919 0.2602
vt 1.9990 2.9985 0.0005
vt 1.5493 2.6081 0.2602
vt 0.9995 0.6656 1.9924
vt 0.9995 1.3344 1.4314
vt 0.7355 1.3344 1.4314
vt 0.7355 0.7942 1.9924
vt 0.2995 0.0010 0.1388
vt 0.8257 0.3765 0.1388
vt 0.8257 1.6235 0.1388
vt 0.2995 1.9990 0.1388
vt 0.7355 0.7942 -0.9924
vt 0.7355 1.3344 -0.4314
vt 0.9995 1.3344 -0.4314
vt 0.9995 0.6656 -0.9924
vt 0.1743 1.9990 -0.2661
vt 0.8257 1.6235 -0.2661
vt 0.8257 0.3765 -0.2661
vt 0.1743 0.0010 -0.2661
vt 0.0010 2.5000 0.2498
vt 1.0000 0.0025 0.2498
vt 1.9990 2.5000 0.2498
vt 1.0000 4.9975 0.2498
vt 1.0000 0.0050 0.6358
vt 1.0000 7.5893 0.6182
vt 0.5000 7.5893 0.6182
vt 0.5090 0.0050 0.6185
vt 0.5000 9.9950 0.9990
vt -0.0000 9.9950 0.9990
vt -0.0000 7.5893 0.9990
vt 0.5000 7.5893 0.9990
vt 0.3818 5.0000 0.2498
vt 0.0010 5.0000 0.2498
vt 1.0000 0.0050 0.2498
vt 1.0000 1.9089 0.2498
vt 1.6182 5.0000 0.1295
vt 1.9990 5.0000 0.1295
vt 1.0000 0.0050 0.1295
vt 1.0000 1.9089 0.1295
vt 2.0000 4.9975 0.9990
vt 1.5000 4.9975 0.9990
vt 1.5000 2.5000 0.9990
vt 2.0000 2.5000 0.9990
vt 0.5000 4.9975 0.9990
vt -0.0000 4.9975 0.9990
vt 0.0000 2.5000 0.9990
vt 0.5000 2.5000 0.9990
vt 1.0000 4.9975 0.9990
vt 1.0000 2.5000 0.9990
vt -0.0000 7.5893 0.6182
vt 0.0000 0.0050 0.6007
vt 1.0000 7.5893 0.9990
vt 1.0000 9.9950 0.9990
vt 1.9990 5.0000 0.2498
vt 1.6182 5.0000 0.2498
vt 0.0010 5.0000 0.1295
vt 0.3818 5.0000 0.1295
vt 0.0010 2.5000 -0.2498
vt 1.0000 4.9975 -0.2498
vt 1.9990 2.5000 -0.2498
vt 1.0000 0.0025 -0.2498
vt 1.4910 0.0050 0.6185
vt 1.5000 7.5893 0.6182
vt 1.5000 9.9950 0.9990
vt 1.5000 7.5893 0.9990
vt 2.0000 7.5893 0.9990
vt 2.0000 9.9950 0.9990
vt 1.0000 8.0911 0.2498
vt 1.0000 9.9950 0.2498
vt 1.0000 8.0911 0.1295
vt 1.0000 9.9950 0.1295
vt 2.0000 0.0025 0.9990
vt 1.5000 0.0025 0.9990
vt 0.5000 0.0025 0.9990
vt 0.0000 0.0025 0.9990
vt 1.0000 0.0025 0.9990
vt -0.5090 0.0050 0.6185
vt -0.5000 7.5893 0.6182
# 115 texture coords

g lever
s 1
f 1/1/1 2/2/2 3/3/3 4/4/4 
s 8
f 5/5/5 6/6/6 7/7/7 8/8/8 
s 64
f 9/9/9 8/8/10 7/7/9 10/10/9 
s 8
f 11/11/11 12/12/12 6/6/6 5/5/5 
s 32
f 13/13/13 9/9/14 10/10/15 14/14/16 
s 1
f 7/15/17 6/16/18 1/17/1 4/18/4 
s off
f 6/19/19 14/20/19 2/21/19 1/22/19 
s 1
f 14/23/20 10/24/21 3/25/3 2/26/2 
s off
f 10/27/22 7/28/22 4/29/22 3/30/22 
s 32
f 14/14/16 15/31/23 16/32/24 13/13/13 
s 1
f 17/33/25 18/34/4 19/35/26 20/36/2 
s 8
f 11/11/11 21/37/8 22/38/27 12/12/12 
s 64
f 23/39/28 24/40/28 22/38/28 21/37/29 
s 4
f 12/12/30 15/31/30 14/14/30 6/6/30 
s 32
f 16/32/24 15/31/23 24/40/31 23/39/14 
s 1
f 22/41/32 18/42/4 17/43/25 12/44/33 
s off
f 12/45/34 17/46/34 20/47/34 15/48/34 
s 1
f 15/49/35 20/50/2 19/51/26 24/52/36 
s off
f 24/53/37 19/54/37 18/55/37 22/56/37 
s 1
f 25/57/34 26/58/34 27/59/34 28/60/34 
s 8
f 29/61/38 30/62/39 31/63/40 32/64/41 
f 33/65/42 34/66/43 35/67/44 36/68/42 
s off
f 37/69/45 34/70/45 33/71/45 38/72/45 
f 30/73/46 39/74/46 36/75/46 31/76/46 
s 8
f 25/77/47 28/78/48 40/79/48 41/80/49 
f 26/81/50 25/82/47 41/83/49 42/84/50 
f 27/85/51 26/81/50 42/84/50 43/86/51 
f 28/78/48 27/85/51 43/86/51 40/79/48 
f 32/64/41 31/63/40 44/87/52 45/88/53 
f 33/65/42 36/68/42 39/89/54 46/90/55 
s off
f 38/72/56 33/71/56 46/91/56 47/92/56 
f 31/76/57 36/75/57 35/93/57 44/94/57 
s 1
f 48/95/19 49/96/19 50/97/19 51/98/19 
s 8
f 29/61/38 52/99/58 53/100/59 30/62/39 
f 54/101/60 55/102/60 35/103/44 34/104/43 
s off
f 37/69/61 56/105/61 54/106/61 34/70/61 
f 30/73/62 53/107/62 55/108/62 39/74/62 
s 8
f 48/109/49 41/80/49 40/79/48 49/110/63 
f 51/111/50 42/84/50 41/83/49 48/112/49 
f 50/113/64 43/86/51 42/84/50 51/111/50 
f 49/110/63 40/79/48 43/86/51 50/113/64 
f 52/114/58 45/88/53 44/87/52 53/115/59 
f 54/101/60 46/90/55 39/89/54 55/102/60 
s off
f 56/105/65 47/92/65 46/91/65 54/106/65 
f 53/107/66 44/94/66 35/93/66 55/108/66 
f 47/92/48 56/105/48 37/69/48 38/72/48 
# 46 polygons

