# 3ds Max Wavefront OBJ Exporter v0.94b - (c)2007 guruware
# File Created: 30.09.2009 16:46:26

#
# object grassboards
#

v  -0.3937 0.0000 0.3937
v  -0.3937 0.2953 0.3937
v  0.3937 0.2953 0.3937
v  0.3937 0.0000 0.3937
v  0.3937 0.2953 -0.3937
v  0.3937 0.0000 -0.3937
v  -0.3937 0.2953 -0.3937
v  -0.3937 0.0000 -0.3937
# 8 vertices

vn 0.0000 0.0000 -1.0000
vn -1.0000 0.0000 -0.0000
vn 0.0000 0.0000 1.0000
vn 1.0000 0.0000 -0.0000
# 4 vertex normals

vt 0.9995 0.0005 0.0005
vt 0.9995 0.9995 0.0005
vt 0.0005 0.9995 0.0005
vt 0.0005 0.0005 0.0005
vt 0.9995 0.0005 0.9995
vt 0.9995 0.9995 0.9995
vt 0.0005 0.9995 0.9995
vt 0.0005 0.0005 0.9995
# 8 texture coords

g grassboards
s 8
f 1/1/1 2/2/1 3/3/1 4/4/1 
s 16
f 4/5/2 3/6/2 5/7/2 6/8/2 
s 32
f 6/5/3 5/6/3 7/7/3 8/8/3 
s 64
f 8/1/4 7/2/4 2/3/4 1/4/4 
# 4 polygons

