# 3ds Max Wavefront OBJ Exporter v0.94b - (c)2007 guruware
# File Created: 30.09.2009 23:58:07

#
# object hatch
#

v  0.4921 0.0939 0.4921
v  -0.4921 0.0939 0.4921
v  -0.4921 0.0000 0.4921
v  0.4921 0.0000 0.4921
v  0.4921 0.0939 -0.4921
v  0.4921 0.0000 -0.4921
v  -0.4921 0.0939 -0.4921
v  -0.4921 0.0000 -0.4921
v  -0.4086 -0.0000 0.4086
v  -0.4086 0.0939 0.4086
v  0.4086 0.0939 0.4086
v  0.4086 -0.0000 0.4086
v  0.4086 0.0939 -0.4086
v  0.4086 0.0000 -0.4086
v  -0.4086 0.0939 -0.4086
v  -0.4086 0.0000 -0.4086
v  -0.0003 0.1192 0.4927
v  -0.0003 0.1008 0.4608
v  0.0883 0.1140 0.4114
v  0.1108 0.1358 0.4307
v  -0.0003 0.1327 0.4424
v  0.0657 0.1425 0.4056
v  -0.0003 0.1511 0.4743
v  0.0883 0.1643 0.4249
v  0.0883 0.1405 0.3126
v  0.1108 0.1690 0.3067
v  0.0657 0.1623 0.3319
v  0.0883 0.1908 0.3261
v  -0.0003 0.1537 0.2632
v  -0.0003 0.1856 0.2448
v  -0.0003 0.1721 0.2951
v  -0.0003 0.2040 0.2766
v  -0.0889 0.1405 0.3126
v  -0.1115 0.1690 0.3067
v  -0.0664 0.1623 0.3319
v  -0.0889 0.1908 0.3261
v  -0.0889 0.1140 0.4114
v  -0.1115 0.1358 0.4307
v  -0.0664 0.1425 0.4056
v  -0.0889 0.1643 0.4249
v  -0.0405 0.1324 0.3786
v  0.0405 0.1324 0.3786
v  0.0405 0.2229 0.2768
v  -0.0405 0.2229 0.2768
v  0.0405 0.1325 0.1776
v  -0.0405 0.1325 0.1776
v  0.3123 0.0926 -0.3361
v  -0.3123 0.0926 -0.3361
v  -0.3123 0.0926 -0.4564
v  0.3123 0.0926 -0.4564
v  0.3123 0.1568 -0.3361
v  0.3123 0.1568 -0.4564
v  -0.3123 0.1568 -0.4564
v  -0.3123 0.1568 -0.3361
v  -0.4127 0.0541 0.4127
v  -0.4127 0.0541 -0.4127
v  0.4127 0.0541 -0.4127
v  0.4127 0.0541 0.4127
v  -0.4127 0.1366 0.4127
v  0.4127 0.1366 0.4127
v  0.4127 0.1366 -0.4127
v  -0.4127 0.1366 -0.4127
# 62 vertices

vn 0.0000 0.0000 1.0000
vn 1.0000 0.0000 -0.0000
vn 0.0000 -0.0000 -1.0000
vn -1.0000 0.0000 -0.0000
vn 0.0000 0.0000 -1.0000
vn -1.0000 -0.0000 -0.0000
vn -1.0000 0.0000 0.0000
vn 1.0000 -0.0000 0.0000
vn -0.0000 -1.0000 0.0000
vn 0.0000 -1.0000 0.0000
vn -0.0000 1.0000 -0.0000
vn 0.0000 1.0000 -0.0000
vn 0.0000 -0.2588 0.9659
vn -0.0000 -0.9994 -0.0357
vn 0.1942 -0.9704 -0.1440
vn 0.8660 -0.1294 0.4830
vn -0.0000 0.2588 -0.9659
vn -0.8660 0.1294 -0.4830
vn 0.0000 0.8833 0.4688
vn 0.1942 0.9123 0.3605
vn 0.1942 -0.9123 -0.3605
vn 0.8660 0.1294 -0.4830
vn -0.8660 -0.1294 0.4830
vn 0.1942 0.9704 0.1440
vn 0.0000 -0.8833 -0.4688
vn 0.0000 0.2588 -0.9659
vn 0.0000 0.9994 0.0357
vn -0.1942 -0.9123 -0.3605
vn -0.1942 0.9704 0.1440
vn -0.1942 -0.9704 -0.1440
vn -0.1942 0.9123 0.3605
vn 0.0000 0.7474 0.6644
vn 0.0000 1.0000 -0.0062
vn 1.0000 0.0000 0.0000
vn 0.0000 0.7392 -0.6735
vn 0.0000 -1.0000 -0.0000
vn -0.0000 0.0000 -1.0000
# 37 vertex normals

vt 0.9995 0.9995 0.0005
vt 0.0005 0.9995 0.0005
vt 0.0005 0.0005 0.0005
vt 0.9995 0.0005 0.0005
vt 0.9995 0.9995 0.9995
vt 0.0005 0.9995 0.9995
vt 0.0005 0.0005 0.9995
vt 0.9995 0.0005 0.9995
vt 0.9147 0.0005 0.0853
vt 0.9147 0.9995 0.0853
vt 0.0853 0.9995 0.0853
vt 0.0853 0.0005 0.0853
vt 0.9147 0.0005 0.9147
vt 0.9147 0.9995 0.9147
vt 0.0853 0.9995 0.9147
vt 0.0853 0.0005 0.9147
vt 0.9147 0.0853 0.0005
vt 0.0853 0.0853 0.0005
vt 0.9147 0.0853 0.9995
vt 0.0853 0.0853 0.9995
vt 0.0853 0.9147 0.0005
vt 0.9147 0.9147 0.9995
vt 0.9147 0.9147 0.0005
vt 0.0853 0.9147 0.9995
vt 0.0000 0.0000 0.0000
vt 0.2500 0.0000 0.0000
vt 0.2500 0.1667 0.0000
vt 0.0000 0.1667 0.0000
vt 0.5000 0.0000 0.0000
vt 0.5000 0.1667 0.0000
vt 0.7500 0.0000 0.0000
vt 0.7500 0.1667 0.0000
vt 1.0000 0.0000 0.0000
vt 1.0000 0.1667 0.0000
vt 0.2500 0.3333 0.0000
vt 0.0000 0.3333 0.0000
vt 0.5000 0.3333 0.0000
vt 0.7500 0.3333 0.0000
vt 1.0000 0.3333 0.0000
vt 0.2500 0.5000 0.0000
vt 0.0000 0.5000 0.0000
vt 0.5000 0.5000 0.0000
vt 0.7500 0.5000 0.0000
vt 1.0000 0.5000 0.0000
vt 0.2500 0.6667 0.0000
vt 0.0000 0.6667 0.0000
vt 0.5000 0.6667 0.0000
vt 0.7500 0.6667 0.0000
vt 1.0000 0.6667 0.0000
vt 0.2500 0.8333 0.0000
vt 0.0000 0.8333 0.0000
vt 0.5000 0.8333 0.0000
vt 0.7500 0.8333 0.0000
vt 1.0000 0.8333 0.0000
vt 0.2500 1.0000 0.0000
vt 0.0000 1.0000 0.0000
vt 0.5000 1.0000 0.0000
vt 0.7500 1.0000 0.0000
vt 1.0000 1.0000 0.0000
vt 0.0002 0.0002 0.9707
vt 0.4997 0.0002 0.9707
vt 0.4998 0.4417 0.9999
vt 0.0002 0.4417 0.9999
vt 0.4998 0.0001 0.9995
vt 0.4417 0.4999 0.9995
vt 0.0002 0.4854 0.9995
vt 0.0002 0.0001 0.9995
vt 0.4997 0.0001 0.9995
vt 0.4998 0.4999 0.8834
vt 0.0002 0.4999 0.8834
vt 0.0002 0.0001 0.0005
vt 0.4998 0.4854 0.0005
vt 0.0583 0.4999 0.0005
# 73 texture coords

g hatch
s 8
f 1/1/1 2/2/1 3/3/1 4/4/1 
s 16
f 5/5/2 1/6/2 4/7/2 6/8/2 
s 32
f 7/5/3 5/6/3 6/7/3 8/8/3 
s 64
f 2/1/4 7/2/4 8/3/4 3/4/4 
s 8
f 9/9/5 10/10/5 11/11/5 12/12/5 
s 16
f 12/13/6 11/14/6 13/15/7 14/16/7 
s 32
f 14/13/1 13/14/1 15/15/1 16/16/1 
s 64
f 16/9/2 15/10/2 10/11/8 9/12/8 
s 1
f 9/17/9 12/18/10 4/3/10 3/4/9 
f 11/19/11 10/20/12 2/7/12 1/8/11 
f 12/18/10 14/21/9 6/2/9 4/3/10 
f 13/22/12 11/19/11 1/8/11 5/5/12 
f 14/21/9 16/23/10 8/1/10 6/2/9 
f 15/24/11 13/22/12 5/5/12 7/6/11 
f 16/23/10 9/17/9 3/4/9 8/1/10 
f 10/20/12 15/24/11 7/6/11 2/7/12 
f 17/25/13 18/26/14 19/27/15 20/28/16 
f 18/26/14 21/29/17 22/30/18 19/27/15 
f 21/29/17 23/31/19 24/32/20 22/30/18 
f 23/31/19 17/33/13 20/34/16 24/32/20 
f 20/28/16 19/27/15 25/35/21 26/36/22 
f 19/27/15 22/30/18 27/37/23 25/35/21 
f 22/30/18 24/32/20 28/38/24 27/37/23 
f 24/32/20 20/34/16 26/39/22 28/38/24 
f 26/36/22 25/35/21 29/40/25 30/41/26 
f 25/35/21 27/37/23 31/42/13 29/40/25 
f 27/37/23 28/38/24 32/43/27 31/42/13 
f 28/38/24 26/39/22 30/44/26 32/43/27 
f 30/41/26 29/40/25 33/45/28 34/46/18 
f 29/40/25 31/42/13 35/47/16 33/45/28 
f 31/42/13 32/43/27 36/48/29 35/47/16 
f 32/43/27 30/44/26 34/49/18 36/48/29 
f 34/46/18 33/45/28 37/50/30 38/51/23 
f 33/45/28 35/47/16 39/52/22 37/50/30 
f 35/47/16 36/48/29 40/53/31 39/52/22 
f 36/48/29 34/49/18 38/54/23 40/53/31 
f 38/51/23 37/50/30 18/55/14 17/56/13 
f 37/50/30 39/52/22 21/57/17 18/55/14 
f 39/52/22 40/53/31 23/58/19 21/57/17 
f 40/53/31 38/54/23 17/59/13 23/58/19 
f 41/60/32 42/61/32 43/62/33 44/63/33 
s 16
f 45/64/34 43/65/34 42/66/34 
s 1
f 45/67/35 46/68/35 44/69/33 43/70/33 
s 64
f 46/71/6 41/72/6 44/73/6 
s 2
f 47/33/36 48/59/36 49/56/36 50/25/36 
s 4
f 51/25/12 52/33/12 53/59/12 54/56/12 
s 8
f 47/25/2 50/33/2 52/59/2 51/56/2 
s 16
f 50/25/37 49/33/37 53/59/37 52/56/37 
s 32
f 49/25/4 48/33/4 54/59/4 53/56/4 
s 64
f 48/25/1 47/33/1 51/59/1 54/56/1 
s 2
f 55/33/36 56/59/36 57/56/36 58/25/36 
s 4
f 59/25/12 60/33/12 61/59/12 62/56/12 
s 8
f 55/25/1 58/33/1 60/59/1 59/56/1 
s 16
f 58/25/2 57/33/2 61/59/2 60/56/2 
s 32
f 57/25/5 56/33/5 62/59/5 61/56/5 
s 64
f 56/25/4 55/33/4 59/59/4 62/56/4 
# 54 polygons - 2 triangles

