# 3ds Max Wavefront OBJ Exporter v0.94b - (c)2007 guruware
# File Created: 30.09.2009 18:43:21

#
# object floor_bars
#

v  0.4995 0.0799 0.4995
v  -0.4995 0.0799 0.4995
v  -0.4995 0.0000 0.4995
v  0.4995 0.0000 0.4995
v  0.4995 0.0799 -0.4995
v  0.4995 0.0000 -0.4995
v  -0.4995 0.0799 -0.4995
v  -0.4995 0.0000 -0.4995
v  -0.4147 0.0000 0.4147
v  -0.4147 0.0799 0.4147
v  0.4147 0.0799 0.4147
v  0.4147 0.0000 0.4147
v  0.4147 0.0799 -0.4147
v  0.4147 0.0000 -0.4147
v  -0.4147 0.0799 -0.4147
v  -0.4147 0.0000 -0.4147
v  -0.2480 0.0388 0.4703
v  -0.2480 0.0388 -0.4703
v  -0.2198 0.0106 -0.4703
v  -0.2198 0.0106 0.4703
v  -0.2198 0.0671 0.4703
v  -0.1915 0.0388 0.4703
v  -0.1915 0.0388 -0.4703
v  -0.2198 0.0671 -0.4703
v  -0.0283 0.0388 0.4703
v  -0.0283 0.0388 -0.4703
v  0.0000 0.0106 -0.4703
v  0.0000 0.0106 0.4703
v  0.0000 0.0671 0.4703
v  0.0283 0.0388 0.4703
v  0.0283 0.0388 -0.4703
v  0.0000 0.0671 -0.4703
v  0.1915 0.0388 0.4703
v  0.1915 0.0388 -0.4703
v  0.2198 0.0106 -0.4703
v  0.2198 0.0106 0.4703
v  0.2198 0.0671 0.4703
v  0.2480 0.0388 0.4703
v  0.2480 0.0388 -0.4703
v  0.2198 0.0671 -0.4703
# 40 vertices

vn 0.0000 0.0000 1.0000
vn 1.0000 0.0000 -0.0000
vn 0.0000 0.0000 -1.0000
vn -1.0000 0.0000 -0.0000
vn 0.0000 -1.0000 -0.0000
vn 0.0000 1.0000 -0.0000
vn -1.0000 -0.0000 -0.0000
vn -0.0000 1.0000 -0.0000
# 8 vertex normals

vt 0.9995 0.9995 0.0005
vt 0.0005 0.9995 0.0005
vt 0.0005 0.0005 0.0005
vt 0.9995 0.0005 0.0005
vt 0.9995 0.9995 0.9995
vt 0.0005 0.9995 0.9995
vt 0.0005 0.0005 0.9995
vt 0.9995 0.0005 0.9995
vt 0.9147 0.0005 0.0853
vt 0.9147 0.9995 0.0853
vt 0.0853 0.9995 0.0853
vt 0.0853 0.0005 0.0853
vt 0.9147 0.0005 0.9147
vt 0.9147 0.9995 0.9147
vt 0.0853 0.9995 0.9147
vt 0.0853 0.0005 0.9147
vt 0.9147 0.0853 0.0005
vt 0.0853 0.0853 0.0005
vt 0.9147 0.0853 0.9995
vt 0.0853 0.0853 0.9995
vt 0.0853 0.9147 0.0005
vt 0.9147 0.9147 0.9995
vt 0.9147 0.9147 0.0005
vt 0.0853 0.9147 0.9995
vt 0.7398 0.0297 0.2359
vt 0.7398 0.9703 0.2359
vt 0.6998 0.9703 0.2359
vt 0.6998 0.0297 0.2359
vt 0.2602 0.0297 0.7354
vt 0.3002 0.0297 0.7354
vt 0.3002 0.9703 0.7354
vt 0.2602 0.9703 0.7354
vt 0.0297 0.2359 0.3002
vt 0.9703 0.2359 0.3002
vt 0.9703 0.7354 0.3002
vt 0.0297 0.7354 0.3002
vt 0.0297 0.2359 0.2602
vt 0.9703 0.2359 0.2602
vt 0.9703 0.7354 0.2602
vt 0.0297 0.7354 0.2602
vt 0.5200 0.0297 0.2359
vt 0.5200 0.9703 0.2359
vt 0.4800 0.9703 0.2359
vt 0.4800 0.0297 0.2359
vt 0.4800 0.0297 0.7354
vt 0.5200 0.0297 0.7354
vt 0.5200 0.9703 0.7354
vt 0.4800 0.9703 0.7354
vt 0.0297 0.2359 0.5200
vt 0.9703 0.2359 0.5200
vt 0.9703 0.7354 0.5200
vt 0.0297 0.7354 0.5200
vt 0.0297 0.2359 0.4800
vt 0.9703 0.2359 0.4800
vt 0.9703 0.7354 0.4800
vt 0.0297 0.7354 0.4800
vt 0.3002 0.0297 0.2359
vt 0.3002 0.9703 0.2359
vt 0.2602 0.9703 0.2359
vt 0.2602 0.0297 0.2359
vt 0.6998 0.0297 0.7354
vt 0.7398 0.0297 0.7354
vt 0.7398 0.9703 0.7354
vt 0.6998 0.9703 0.7354
vt 0.0297 0.2359 0.7398
vt 0.9703 0.2359 0.7398
vt 0.9703 0.7354 0.7398
vt 0.0297 0.7354 0.7398
vt 0.0297 0.2359 0.6998
vt 0.9703 0.2359 0.6998
vt 0.9703 0.7354 0.6998
vt 0.0297 0.7354 0.6998
# 72 texture coords

g floor_bars
s 8
f 1/1/1 2/2/1 3/3/1 4/4/1 
s 16
f 5/5/2 1/6/2 4/7/2 6/8/2 
s 32
f 7/5/3 5/6/3 6/7/3 8/8/3 
s 64
f 2/1/4 7/2/4 8/3/4 3/4/4 
s 8
f 9/9/3 10/10/3 11/11/3 12/12/3 
s 16
f 12/13/4 11/14/4 13/15/4 14/16/4 
s 32
f 14/13/1 13/14/1 15/15/1 16/16/1 
s 64
f 16/9/2 15/10/2 10/11/2 9/12/2 
s 1
f 9/17/5 12/18/5 4/3/5 3/4/5 
f 11/19/6 10/20/6 2/7/6 1/8/6 
f 12/18/5 14/21/5 6/2/5 4/3/5 
f 13/22/6 11/19/6 1/8/6 5/5/6 
f 14/21/5 16/23/5 8/1/5 6/2/5 
f 15/24/6 13/22/6 5/5/6 7/6/6 
f 16/23/5 9/17/5 3/4/5 8/1/5 
f 10/20/6 15/24/6 7/6/6 2/7/6 
f 17/25/7 18/26/7 19/27/5 20/28/5 
f 21/29/8 22/30/2 23/31/2 24/32/8 
f 20/33/5 19/34/5 23/35/2 22/36/2 
f 18/37/7 17/38/7 21/39/8 24/40/8 
f 25/41/7 26/42/7 27/43/5 28/44/5 
f 29/45/6 30/46/2 31/47/2 32/48/8 
f 28/49/5 27/50/5 31/51/2 30/52/2 
f 26/53/7 25/54/7 29/55/6 32/56/8 
f 33/57/7 34/58/7 35/59/5 36/60/5 
f 37/61/8 38/62/2 39/63/2 40/64/8 
f 36/65/5 35/66/5 39/67/2 38/68/2 
f 34/69/7 33/70/7 37/71/8 40/72/8 
# 28 polygons

