# 3ds Max Wavefront OBJ Exporter v0.94b - (c)2007 guruware
# File Created: 30.09.2009 18:43:40

#
# object floor_grate
#

v  0.4995 0.0799 0.4995
v  -0.4995 0.0799 0.4995
v  -0.4995 0.0000 0.4995
v  0.4995 0.0000 0.4995
v  0.4995 0.0799 -0.4995
v  0.4995 0.0000 -0.4995
v  -0.4995 0.0799 -0.4995
v  -0.4995 0.0000 -0.4995
v  -0.4147 0.0000 0.4147
v  -0.4147 0.0799 0.4147
v  0.4147 0.0799 0.4147
v  0.4147 0.0000 0.4147
v  0.4147 0.0799 -0.4147
v  0.4147 0.0000 -0.4147
v  -0.4147 0.0799 -0.4147
v  -0.4147 0.0000 -0.4147
v  0.4751 0.0104 -0.2578
v  0.4468 0.0104 -0.2295
v  0.2253 0.0104 -0.4511
v  0.2535 0.0104 -0.4794
v  0.4751 0.0503 -0.2578
v  0.2535 0.0503 -0.4794
v  0.2253 0.0503 -0.4511
v  0.4468 0.0503 -0.2295
v  0.4737 0.0104 0.0521
v  0.4455 0.0104 0.0804
v  -0.0846 0.0104 -0.4497
v  -0.0564 0.0104 -0.4780
v  0.4737 0.0503 0.0521
v  -0.0564 0.0503 -0.4780
v  -0.0846 0.0503 -0.4497
v  0.4455 0.0503 0.0804
v  0.4663 0.0104 0.3560
v  0.4380 0.0104 0.3842
v  -0.3885 0.0104 -0.4423
v  -0.3602 0.0104 -0.4706
v  0.4663 0.0503 0.3560
v  -0.3602 0.0503 -0.4706
v  -0.3885 0.0503 -0.4423
v  0.4380 0.0503 0.3842
v  0.2365 0.0104 0.4374
v  0.2082 0.0104 0.4657
v  -0.4699 0.0104 -0.2125
v  -0.4417 0.0104 -0.2408
v  0.2365 0.0503 0.4374
v  -0.4417 0.0503 -0.2408
v  -0.4699 0.0503 -0.2125
v  0.2082 0.0503 0.4657
v  -0.0644 0.0104 0.4478
v  -0.0927 0.0104 0.4760
v  -0.4803 0.0104 0.0884
v  -0.4521 0.0104 0.0601
v  -0.0644 0.0503 0.4478
v  -0.4521 0.0503 0.0601
v  -0.4803 0.0503 0.0884
v  -0.0927 0.0503 0.4760
v  -0.0927 0.0259 -0.4846
v  -0.0644 0.0259 -0.4563
v  -0.4521 0.0259 -0.0687
v  -0.4803 0.0259 -0.0969
v  -0.0927 0.0659 -0.4846
v  -0.4803 0.0659 -0.0969
v  -0.4521 0.0659 -0.0687
v  -0.0644 0.0659 -0.4563
v  0.2082 0.0259 -0.4742
v  0.2365 0.0259 -0.4460
v  -0.4417 0.0259 0.2322
v  -0.4699 0.0259 0.2039
v  0.2082 0.0659 -0.4742
v  -0.4699 0.0659 0.2039
v  -0.4417 0.0659 0.2322
v  0.2365 0.0659 -0.4460
v  0.4380 0.0259 -0.3928
v  0.4663 0.0259 -0.3645
v  -0.3602 0.0259 0.4620
v  -0.3885 0.0259 0.4338
v  0.4380 0.0659 -0.3928
v  -0.3885 0.0659 0.4338
v  -0.3602 0.0659 0.4620
v  0.4663 0.0659 -0.3645
v  0.4455 0.0259 -0.0889
v  0.4737 0.0259 -0.0607
v  -0.0564 0.0259 0.4695
v  -0.0846 0.0259 0.4412
v  0.4455 0.0659 -0.0889
v  -0.0846 0.0659 0.4412
v  -0.0564 0.0659 0.4695
v  0.4737 0.0659 -0.0607
v  0.4468 0.0259 0.2210
v  0.4751 0.0259 0.2492
v  0.2535 0.0259 0.4708
v  0.2253 0.0259 0.4426
v  0.4468 0.0659 0.2210
v  0.2253 0.0659 0.4426
v  0.2535 0.0659 0.4708
v  0.4751 0.0659 0.2492
# 96 vertices

vn 0.0000 0.0000 1.0000
vn 1.0000 0.0000 -0.0000
vn 0.0000 0.0000 -1.0000
vn -1.0000 0.0000 -0.0000
vn 0.0000 -1.0000 -0.0000
vn 0.0000 1.0000 -0.0000
vn -0.7071 0.0000 0.7071
vn 0.7071 0.0000 -0.7071
vn 0.7071 0.0000 0.7071
vn -0.7071 0.0000 -0.7071
# 10 vertex normals

vt 0.9995 0.9995 0.0005
vt 0.0005 0.9995 0.0005
vt 0.0005 0.0005 0.0005
vt 0.9995 0.0005 0.0005
vt 0.9995 0.9995 0.9995
vt 0.0005 0.9995 0.9995
vt 0.0005 0.0005 0.9995
vt 0.9995 0.0005 0.9995
vt 0.9147 0.0005 0.0853
vt 0.9147 0.9995 0.0853
vt 0.0853 0.9995 0.0853
vt 0.0853 0.0005 0.0853
vt 0.9147 0.0005 0.9147
vt 0.9147 0.9995 0.9147
vt 0.0853 0.9995 0.9147
vt 0.0853 0.0005 0.9147
vt 0.9147 0.0853 0.0005
vt 0.0853 0.0853 0.0005
vt 0.9147 0.0853 0.9995
vt 0.0853 0.0853 0.9995
vt 0.0853 0.9147 0.0005
vt 0.9147 0.9147 0.9995
vt 0.9147 0.9147 0.0005
vt 0.0853 0.9147 0.9995
vt 0.0005 0.5232 0.2438
vt 0.0005 0.4768 0.2438
vt 0.9995 0.4768 0.2438
vt 0.9995 0.5232 0.2438
vt 0.9995 0.5232 0.7562
vt 0.0005 0.5232 0.7562
vt 0.0005 0.4768 0.7562
vt 0.9995 0.4768 0.7562
vt 0.9995 0.7562 0.4768
vt 0.0005 0.7562 0.4768
vt 0.0005 0.2438 0.4768
vt 0.9995 0.2438 0.4768
vt 0.9995 0.7562 0.5232
vt 0.0005 0.7562 0.5232
vt 0.0005 0.2438 0.5232
vt 0.9995 0.2438 0.5232
# 40 texture coords

g floor_grate
s 8
f 1/1/1 2/2/1 3/3/1 4/4/1 
s 16
f 5/5/2 1/6/2 4/7/2 6/8/2 
s 32
f 7/5/3 5/6/3 6/7/3 8/8/3 
s 64
f 2/1/4 7/2/4 8/3/4 3/4/4 
s 8
f 9/9/3 10/10/3 11/11/3 12/12/3 
s 16
f 12/13/4 11/14/4 13/15/4 14/16/4 
s 32
f 14/13/1 13/14/1 15/15/1 16/16/1 
s 64
f 16/9/2 15/10/2 10/11/2 9/12/2 
s 1
f 9/17/5 12/18/5 4/3/5 3/4/5 
f 11/19/6 10/20/6 2/7/6 1/8/6 
f 12/18/5 14/21/5 6/2/5 4/3/5 
f 13/22/6 11/19/6 1/8/6 5/5/6 
f 14/21/5 16/23/5 8/1/5 6/2/5 
f 15/24/6 13/22/6 5/5/6 7/6/6 
f 16/23/5 9/17/5 3/4/5 8/1/5 
f 10/20/6 15/24/6 7/6/6 2/7/6 
s 2
f 17/25/5 18/26/5 19/27/5 20/28/5 
s 4
f 21/29/6 22/30/6 23/31/6 24/32/6 
s 8
f 24/33/7 23/34/7 19/35/7 18/36/7 
s 32
f 22/37/8 21/38/8 17/39/8 20/40/8 
s 2
f 25/25/5 26/26/5 27/27/5 28/28/5 
s 4
f 29/29/6 30/30/6 31/31/6 32/32/6 
s 8
f 32/33/7 31/34/7 27/35/7 26/36/7 
s 32
f 30/37/8 29/38/8 25/39/8 28/40/8 
s 2
f 33/25/5 34/26/5 35/27/5 36/28/5 
s 4
f 37/29/6 38/30/6 39/31/6 40/32/6 
s 8
f 40/33/7 39/34/7 35/35/7 34/36/7 
s 32
f 38/37/8 37/38/8 33/39/8 36/40/8 
s 2
f 41/25/5 42/26/5 43/27/5 44/28/5 
s 4
f 45/29/6 46/30/6 47/31/6 48/32/6 
s 8
f 48/33/7 47/34/7 43/35/7 42/36/7 
s 32
f 46/37/8 45/38/8 41/39/8 44/40/8 
s 2
f 49/25/5 50/26/5 51/27/5 52/28/5 
s 4
f 53/29/6 54/30/6 55/31/6 56/32/6 
s 8
f 56/33/7 55/34/7 51/35/7 50/36/7 
s 32
f 54/37/8 53/38/8 49/39/8 52/40/8 
s 2
f 57/25/5 58/26/5 59/27/5 60/28/5 
s 4
f 61/29/6 62/30/6 63/31/6 64/32/6 
s 8
f 64/33/9 63/34/9 59/35/9 58/36/9 
s 32
f 62/37/10 61/38/10 57/39/10 60/40/10 
s 2
f 65/25/5 66/26/5 67/27/5 68/28/5 
s 4
f 69/29/6 70/30/6 71/31/6 72/32/6 
s 8
f 72/33/9 71/34/9 67/35/9 66/36/9 
s 32
f 70/37/10 69/38/10 65/39/10 68/40/10 
s 2
f 73/25/5 74/26/5 75/27/5 76/28/5 
s 4
f 77/29/6 78/30/6 79/31/6 80/32/6 
s 8
f 80/33/9 79/34/9 75/35/9 74/36/9 
s 32
f 78/37/10 77/38/10 73/39/10 76/40/10 
s 2
f 81/25/5 82/26/5 83/27/5 84/28/5 
s 4
f 85/29/6 86/30/6 87/31/6 88/32/6 
s 8
f 88/33/9 87/34/9 83/35/9 82/36/9 
s 32
f 86/37/10 85/38/10 81/39/10 84/40/10 
s 2
f 89/25/5 90/26/5 91/27/5 92/28/5 
s 4
f 93/29/6 94/30/6 95/31/6 96/32/6 
s 8
f 96/33/9 95/34/9 91/35/9 90/36/9 
s 32
f 94/37/10 93/38/10 89/39/10 92/40/10 
# 56 polygons

