# 3ds Max Wavefront OBJ Exporter v0.94b - (c)2007 guruware
# File Created: 24.09.2009 02:50:34

#
# object Cylinder01
#

v  12.2474 0.0000 7.0711
v  12.2474 74.8385 7.0711
v  -0.0000 74.8385 14.1421
v  -0.0000 0.0000 14.1421
v  12.2474 0.0000 -7.0711
v  12.2474 74.8385 -7.0711
v  -0.0000 0.0000 -14.1421
v  -0.0000 74.8385 -14.1421
v  -12.2474 0.0000 -7.0711
v  -12.2475 74.8385 -7.0711
v  -12.2474 0.0000 7.0711
v  -12.2474 74.8385 7.0711
v  4.8184 232.4637 2.7819
v  4.8184 232.4637 -2.7819
v  -0.0000 232.4637 -5.5638
v  -4.8184 232.4637 2.7819
v  -4.8184 232.4637 -2.7819
v  -0.0000 232.4637 5.5638
v  -0.0000 227.4008 14.1421
v  12.2474 227.4008 7.0711
v  12.2474 227.4008 -7.0711
v  -0.0000 227.4008 -14.1421
v  -12.2475 227.4008 -7.0711
v  -12.2475 227.4008 7.0711
v  12.2474 120.2829 7.0711
v  -0.0000 120.2829 14.1421
v  -0.0000 89.1250 14.1421
v  12.2474 89.1250 7.0711
v  12.2474 120.2829 -7.0711
v  12.2474 89.1250 -7.0711
v  -0.0000 120.2829 -14.1421
v  -0.0000 89.1250 -14.1421
v  -12.2475 120.2829 -7.0711
v  -12.2475 89.1250 -7.0711
v  -12.2475 120.2829 7.0711
v  -12.2475 89.1250 7.0711
v  12.2474 134.2580 7.0711
v  -0.0000 134.2580 14.1421
v  29.0752 173.9347 -6.3335
v  29.0752 173.9347 2.2877
v  36.8865 173.9496 2.2877
v  36.8865 173.9496 -6.3335
v  -0.0000 134.2580 -14.1421
v  12.2474 134.2580 -7.0711
v  -12.2475 134.2580 -7.0711
v  -19.9300 195.4792 4.5198
v  -19.9300 195.4792 -4.5198
v  -28.5007 195.4843 -4.5198
v  -28.5007 195.4843 4.5198
v  -12.2475 134.2580 7.0711
v  16.3363 214.1948 18.3871
v  7.7555 214.1948 23.3412
v  12.5334 214.1948 31.6167
v  21.1142 214.1948 26.6626
v  12.2474 147.6950 -7.0711
v  12.2474 147.6950 7.0711
v  -0.0000 147.6950 -14.1421
v  -12.2475 147.6950 -7.0711
v  -12.2475 147.6950 7.0711
v  -0.0000 147.6950 14.1421
v  -16.1845 120.2829 -4.7905
v  -13.7249 134.2580 -7.0711
v  -16.1845 120.2829 4.7905
v  -13.7249 134.2580 7.0711
v  -32.4788 127.9507 -9.0396
v  -15.6700 136.2845 -9.0396
v  -32.4788 127.9507 9.0396
v  -15.6700 136.2845 9.0396
v  -32.8046 190.0484 -9.0396
v  -15.6631 190.0383 -9.0396
v  -32.8046 190.0484 9.0396
v  -15.6631 190.0383 9.0396
v  28.1149 120.4737 3.7611
v  23.4885 132.9862 3.7611
v  28.1149 120.4737 -7.8069
v  23.4885 132.9862 -7.8069
v  39.9911 125.4323 6.5983
v  24.7261 134.7370 6.5983
v  39.9911 125.4323 -10.6441
v  24.7261 134.7370 -10.6441
v  40.7996 170.0200 6.5983
v  25.1770 169.9902 6.5983
v  40.7996 170.0200 -10.6441
v  25.1770 169.9902 -10.6441
v  6.9741 152.6239 -21.9878
v  15.5549 152.6239 -17.0337
v  20.5452 152.6239 -25.6770
v  11.9643 152.6239 -30.6311
v  -6.0976 114.6590 18.9204
v  -13.3368 114.6590 14.7409
v  -17.5444 114.6590 22.0288
v  -10.3053 114.6590 26.2083
v  14.2159 89.1250 -10.4806
v  1.9685 89.1250 -17.5517
v  16.0602 74.8385 -13.6750
v  3.8128 74.8385 -20.7461
v  17.3502 91.4651 -10.2350
v  0.1886 91.4651 -20.1432
v  27.3307 91.4651 -27.5216
v  10.1690 91.4651 -37.4299
v  17.3502 148.6869 -10.2350
v  0.1886 148.6869 -20.1432
v  27.3307 148.6869 -27.5216
v  10.1690 148.6869 -37.4299
v  13.6477 146.8436 11.2886
v  19.3750 135.1095 21.2086
v  2.9524 146.8436 17.4635
v  8.6797 135.1095 27.3835
v  18.2378 150.3859 11.7723
v  27.7935 150.3859 28.3233
v  1.0762 150.3859 21.6806
v  10.6319 150.3859 38.2315
v  18.2378 210.2578 11.7723
v  27.7935 210.2578 28.3233
v  1.0762 210.2578 21.6806
v  10.6319 210.2578 38.2315
v  -3.3102 87.5599 16.7770
v  -6.4949 78.5510 22.2930
v  -12.8742 87.5599 11.2553
v  -16.0589 78.5510 16.7712
v  -8.7896 91.2535 31.9420
v  -0.3743 91.2535 17.3662
v  -14.8525 91.2535 9.0072
v  -23.2678 91.2535 23.5830
v  -0.3743 110.7220 17.3662
v  -8.7896 110.7220 31.9420
v  -14.8525 110.7220 9.0072
v  -23.2678 110.7220 23.5831
# 128 vertices

vn 0.8660 0.0000 0.5000
vn 0.2612 -0.2247 0.9388
vn -0.0000 -0.0000 1.0000
vn 0.8660 0.0000 -0.5000
vn 0.9534 -0.2832 -0.1037
vn -0.0000 0.0000 -1.0000
vn -0.3869 -0.2832 -0.8775
vn -0.8660 -0.0000 -0.5000
vn -0.8660 -0.0000 0.5000
vn -0.9420 -0.2386 0.2360
vn 0.2951 0.9402 0.1704
vn 0.2951 0.9402 -0.1704
vn 0.0000 0.9402 -0.3407
vn -0.2951 0.9402 0.1704
vn -0.2951 0.9402 -0.1704
vn 0.0000 0.9402 0.3407
vn -0.0000 0.4380 0.8990
vn 0.7785 0.4380 0.4495
vn 0.7785 0.4380 -0.4495
vn -0.0000 0.4380 -0.8990
vn -0.7785 0.4380 -0.4495
vn -0.7785 0.4380 0.4495
vn 0.6147 -0.2414 0.7509
vn -0.0000 0.0000 1.0000
vn 0.2314 0.1991 0.9523
vn 0.5576 -0.2958 -0.7756
vn 0.9534 0.2832 -0.1037
vn -0.0000 -0.0000 -1.0000
vn -0.3869 0.2832 -0.8775
vn -0.6821 -0.1816 -0.7083
vn -0.6739 -0.1951 0.7125
vn -0.9395 0.2269 0.2567
vn 0.8879 -0.0223 0.4595
vn -0.3606 -0.2708 0.8925
vn -0.3062 0.9099 -0.2800
vn -0.3062 0.9099 0.2800
vn 0.3027 0.9110 0.2800
vn 0.3027 0.9110 -0.2800
vn 0.5848 0.2942 -0.7560
vn -0.5924 0.2444 -0.7677
vn 0.3489 0.8753 0.3350
vn 0.3489 0.8753 -0.3350
vn -0.3463 0.8762 -0.3351
vn -0.3463 0.8762 0.3351
vn -0.5665 0.2832 0.7739
vn 0.0888 0.9304 -0.3557
vn -0.3524 0.9304 -0.1010
vn -0.0888 0.9304 0.3557
vn 0.3524 0.9304 0.1010
vn 0.9496 0.2380 0.2039
vn -0.3117 0.2600 0.9139
vn -0.2468 -0.8279 -0.5037
vn 0.4392 0.4230 -0.7926
vn -0.2441 -0.8409 0.4831
vn 0.5221 0.5074 0.6855
vn -0.6246 -0.4601 -0.6310
vn 0.6155 -0.0675 -0.7852
vn -0.6331 -0.4563 0.6253
vn 0.6088 0.0425 0.7922
vn -0.6605 0.3551 -0.6616
vn 0.6595 0.3558 -0.6622
vn -0.6605 0.3551 0.6616
vn 0.6595 0.3558 0.6622
vn 0.1570 -0.7814 0.6040
vn -0.4123 0.5337 0.7383
vn 0.0633 -0.7989 -0.5981
vn -0.6734 0.4517 -0.5852
vn 0.6030 -0.4802 0.6370
vn -0.6596 -0.1680 0.7326
vn 0.6218 -0.4735 -0.6239
vn -0.6606 -0.0178 -0.7505
vn 0.6504 0.3931 0.6499
vn -0.6436 0.4014 0.6517
vn 0.6504 0.3931 -0.6499
vn -0.6436 0.4014 -0.6517
vn -0.3487 0.9327 0.0921
vn 0.0946 0.9327 0.3480
vn 0.3487 0.9327 -0.0921
vn -0.0946 0.9327 -0.3480
vn 0.3935 0.9134 -0.1042
vn -0.1065 0.9134 -0.3929
vn -0.3935 0.9134 0.1042
vn 0.1065 0.9134 0.3929
vn 0.1341 0.4380 0.8889
vn -0.8369 0.4380 0.3283
vn 0.6446 -0.7602 0.0808
vn -0.3923 -0.7602 -0.5178
vn 0.3395 -0.0083 0.9406
vn -0.9843 -0.0083 0.1763
vn 0.9004 -0.3240 -0.2903
vn -0.1988 -0.3240 -0.9249
vn 0.2340 0.4260 0.8740
vn -0.8738 0.4260 0.2344
vn 0.8738 0.4260 -0.2344
vn -0.2340 0.4260 -0.8740
vn 0.4782 0.4964 -0.7245
vn 0.6557 -0.7537 0.0438
vn -0.8008 0.5932 0.0822
vn -0.2848 -0.7534 0.5926
vn 0.3613 -0.0521 -0.9310
vn 0.9234 -0.2618 0.2808
vn -0.9869 -0.0521 -0.1526
vn -0.2185 -0.2618 0.9401
vn 0.2356 0.4230 -0.8750
vn 0.8755 0.4230 0.2335
vn -0.8755 0.4230 -0.2335
vn -0.2356 0.4230 0.8750
vn 0.9433 0.0566 0.3272
vn 0.2927 -0.6435 0.7073
vn -0.7869 0.2187 -0.5771
vn -0.7555 -0.6440 0.1202
vn 0.2278 -0.2896 0.9296
vn 0.9350 -0.2821 -0.2151
vn -0.2812 -0.2821 -0.9172
vn -0.9190 -0.2896 0.2676
vn 0.8847 0.4012 -0.2373
vn 0.2369 0.4012 0.8848
vn -0.2369 0.4012 -0.8848
vn -0.8847 0.4012 0.2373
# 119 vertex normals

vt 0.0060 0.8565 0.8101
vt 3.8040 0.8565 0.8101
vt 3.8040 0.1435 0.8101
vt 0.0060 0.1435 0.8101
vt 0.0060 0.9841 0.9187
vt 3.8040 0.9841 0.9187
vt 3.8040 0.0375 0.9187
vt 0.0060 0.0375 0.9187
vt 0.0060 0.1431 0.6364
vt 3.8040 0.1431 0.6364
vt 3.8040 0.9890 0.6187
vt 0.0060 0.9890 0.6187
vt 0.0060 0.1435 1.5677
vt 3.8040 0.1435 1.5677
vt 3.8040 0.8565 1.5677
vt 0.0060 0.8565 1.5677
vt 0.0060 0.0375 -0.3245
vt 3.8040 0.0375 -0.3245
vt 3.8040 0.9841 -0.3245
vt 0.0060 0.9841 -0.3245
vt 0.0060 0.8608 0.2672
vt 3.8040 0.8608 0.2672
vt 3.8040 0.0149 0.2850
vt 0.0060 0.0149 0.2850
vt 1.6465 1.5885 0.9995
vt 1.3061 1.5885 0.9995
vt 1.1358 1.3078 0.9995
vt 1.6465 1.0271 0.9995
vt 1.3061 1.0271 0.9995
vt 1.8167 1.3078 0.9995
vt 11.9940 0.6782 0.9995
vt 11.9940 0.3218 0.9995
vt 11.5464 0.1435 0.8101
vt 11.5464 0.8565 0.8101
vt 11.9940 0.7475 0.6079
vt 11.9940 0.2741 0.6079
vt 11.5464 0.0375 0.9187
vt 11.5464 0.9841 0.9187
vt 11.9940 0.3226 0.5441
vt 11.9940 0.7455 0.5352
vt 11.5464 0.9890 0.6187
vt 11.5464 0.1431 0.6364
vt 11.9940 0.3218 1.3783
vt 11.9940 0.6782 1.3783
vt 11.5464 0.8565 1.5677
vt 11.5464 0.1435 1.5677
vt 11.9940 0.2741 -0.0137
vt 11.9940 0.7475 -0.0137
vt 11.5464 0.9841 -0.3245
vt 11.5464 0.0375 -0.3245
vt 11.9940 0.6814 0.3595
vt 11.9940 0.2585 0.3684
vt 11.5464 0.0149 0.2850
vt 11.5464 0.8608 0.2672
vt 6.1103 0.8565 0.8101
vt 6.1103 0.1435 0.8101
vt 4.5290 0.1435 0.8101
vt 4.5290 0.8565 0.8101
vt 6.1103 0.9841 0.9187
vt 6.1103 0.0375 0.9187
vt 4.5290 0.0375 0.9187
vt 4.5290 0.9841 0.9187
vt 6.1103 -0.1489 0.6442
vt 6.1103 1.0047 0.6442
vt 4.5290 1.0047 0.6442
vt 4.5290 -0.1489 0.6442
vt 6.1103 0.1435 1.5677
vt 6.1103 0.8565 1.5677
vt 4.5290 0.8565 1.5677
vt 4.5290 0.1435 1.5677
vt 6.1103 0.0375 -0.3245
vt 6.1103 0.9841 -0.3245
vt 4.5290 0.9841 -0.3245
vt 4.5290 0.0375 -0.3245
vt 6.1103 0.8608 0.2672
vt 6.1103 0.0149 0.2850
vt 4.5290 0.0149 0.2850
vt 4.5290 0.8608 0.2672
vt 6.8195 0.8565 0.8101
vt 6.8195 0.1435 0.8101
vt 1.1713 2.6405 0.2552
vt 1.5864 2.6405 0.2552
vt 1.5864 2.9985 0.2553
vt 1.1713 2.9985 0.2553
vt 6.8195 0.1431 0.6364
vt 6.8195 0.9890 0.6187
vt 6.1103 0.9890 0.6187
vt 6.1103 0.1431 0.6364
vt 6.8195 0.1435 1.5677
vt 6.8195 0.8565 1.5677
vt 1.6939 0.3943 0.5126
vt 1.2587 0.3943 0.5126
vt 1.2587 0.0015 0.5127
vt 1.6939 0.0015 0.5127
vt 6.8195 0.8608 0.2672
vt 6.8195 0.0149 0.2850
vt 2.3615 2.0566 0.7363
vt 2.6001 1.6633 0.7363
vt 2.9985 1.8823 0.7363
vt 2.7600 2.2756 0.7363
vt 7.5014 0.9841 0.9187
vt 7.5014 0.0375 0.9187
vt 6.8195 0.0375 0.9187
vt 6.8195 0.9841 0.9187
vt 7.5014 0.1431 0.6364
vt 7.5014 0.9890 0.6187
vt 7.5014 0.1435 1.5677
vt 7.5014 0.8565 1.5677
vt 7.5014 1.7977 -0.0768
vt 7.5014 0.6442 -0.0768
vt 6.8195 0.6442 -0.0768
vt 6.8195 1.7977 -0.0768
vt 7.5014 0.8608 0.2672
vt 7.5014 0.0149 0.2850
vt 6.8195 0.0005 0.3335
vt 6.1103 0.0005 0.3335
vt 6.1103 -0.3206 0.1187
vt 6.8195 -0.1200 0.3335
vt 0.8530 1.3969 0.6236
vt 1.7337 1.3969 0.6236
vt 1.5916 1.1256 0.6236
vt 0.9950 1.1256 0.6236
vt 6.1103 0.0005 -0.9985
vt 6.8195 0.0005 -0.9985
vt 6.8195 -0.1200 -0.9985
vt 6.1103 -0.3206 -0.7837
vt 1.7337 1.3969 0.8153
vt 0.8530 1.3969 0.8153
vt 0.8530 1.2951 0.8153
vt 1.7337 1.2951 0.8153
vt 6.4994 -1.6497 0.5189
vt 6.9223 -0.2787 0.5189
vt 1.8562 0.0025 0.7288
vt 0.7305 0.0025 0.7288
vt 6.9223 -0.2787 -1.1839
vt 6.4994 -1.6497 -1.1839
vt 0.7305 1.1610 0.8430
vt 1.8562 1.1610 0.8430
vt 9.6508 -1.6763 0.5189
vt 9.6503 -0.2781 0.5189
vt 6.4994 1.1159 -1.3513
vt 6.4994 -0.0943 -1.3513
vt 9.6508 -0.0943 -1.3678
vt 9.6508 1.1159 -1.3678
vt 9.6503 -0.2781 -1.1839
vt 9.6508 -1.6763 -1.1839
vt 6.9223 1.9583 -0.3991
vt 6.9223 0.4836 -0.3991
vt 9.6503 0.4836 -0.3985
vt 9.6503 1.9583 -0.3985
vt 9.9267 -1.3252 0.0932
vt 9.9264 -0.6261 0.0932
vt 9.9267 0.2083 -1.1494
vt 9.9267 0.8133 -1.1494
vt 9.9264 -0.6261 -0.7582
vt 9.9267 -1.3252 -0.7582
vt 9.9264 0.8523 -0.8004
vt 9.9264 1.5896 -0.8004
vt 6.8195 1.9985 -0.9985
vt 6.1103 1.9985 -0.9985
vt 6.1199 3.2928 -0.6867
vt 6.7549 2.9154 -0.6867
vt 1.7337 3.0853 0.6236
vt 0.8530 3.0853 0.6236
vt 0.8072 4.1789 0.6262
vt 1.5275 4.1789 0.6262
vt 6.1103 1.9985 0.3335
vt 6.8195 1.9985 0.3335
vt 6.7549 2.9154 0.4028
vt 6.1199 3.2928 0.4028
vt 0.8530 3.0853 0.8153
vt 1.7337 3.0853 0.8153
vt 1.5275 3.8601 0.7978
vt 0.8072 3.8601 0.7978
vt 6.3716 4.2615 -0.9540
vt 6.8438 3.0164 -0.9540
vt 0.6305 4.9975 0.6942
vt 1.7042 4.9975 0.6942
vt 6.8438 3.0164 0.6700
vt 6.3716 4.2615 0.6700
vt 6.7549 0.5842 3.2891
vt 6.7549 1.5277 3.2891
vt 6.8438 1.7592 3.4056
vt 6.8438 0.3527 3.4056
vt 8.6344 4.3274 -0.9540
vt 8.6329 3.0531 -0.9540
vt 6.3716 0.0691 2.3268
vt 6.3716 1.2233 2.3268
vt 8.6344 1.2233 2.3678
vt 8.6344 0.0691 2.3678
vt 8.6329 3.0531 0.6700
vt 8.6344 4.3274 0.6700
vt 8.6329 1.7592 3.4481
vt 8.6329 0.3527 3.4481
vt 8.8338 4.0083 -0.5480
vt 8.8330 3.3711 -0.5480
vt 8.8338 0.9348 2.1692
vt 8.8338 0.3577 2.1692
vt 8.8330 3.3711 0.2640
vt 8.8338 4.0083 0.2640
vt 8.8330 1.4076 3.8153
vt 8.8330 0.7044 3.8153
vt 0.4176 1.6275 0.0005
vt 0.6562 2.0208 0.0005
vt 0.2400 2.2495 0.0005
vt 0.0015 1.8562 0.0005
vt 2.4715 1.8208 0.5465
vt 2.2113 1.3219 0.5465
vt 2.6651 1.0319 0.5465
vt 2.9253 1.5308 0.5465
vt 0.4127 2.2411 0.1964
vt 0.8530 3.0853 0.1964
vt 0.6407 3.2209 0.1964
vt 0.2004 2.3768 0.1964
vt 4.5290 1.2414 -1.0129
vt 3.8040 1.2414 -1.0129
vt 3.8040 1.8610 -0.9503
vt 4.5290 1.5613 -0.9806
vt 0.8530 3.0853 0.0005
vt 0.4127 2.2411 0.0005
vt 0.0015 2.5039 0.0005
vt 0.4418 3.3481 0.0005
vt 3.8040 1.1409 0.3140
vt 4.5290 1.1409 0.3140
vt 4.5290 1.4608 0.3464
vt 3.8040 1.7605 0.3766
vt 4.5290 -0.1489 1.0150
vt 4.5290 1.0047 1.0150
vt 4.6478 1.2361 1.1426
vt 4.6478 -0.3803 1.1426
vt 4.6478 1.6915 -1.2357
vt 4.6478 3.3135 -1.0718
vt 3.8040 1.0289 0.7280
vt 3.8040 0.1830 0.7458
vt 4.6478 0.1056 1.0022
vt 4.6478 1.2909 0.9774
vt 4.6478 1.5506 0.6237
vt 4.6478 3.1726 0.7875
vt 7.5517 1.2361 1.1426
vt 7.5517 -0.3803 1.1426
vt 7.5517 3.3135 -1.0718
vt 7.5517 1.6915 -1.2357
vt 7.5517 0.1056 1.0022
vt 7.5517 1.2909 0.9774
vt 7.5517 1.5506 0.6237
vt 7.5517 3.1726 0.7875
vt 7.7515 0.8320 1.6126
vt 7.7515 0.0238 1.6126
vt 7.7515 2.8728 -0.6479
vt 7.7515 2.0618 -0.7299
vt 7.7515 0.3758 0.9244
vt 7.7515 0.9684 0.9120
vt 7.7515 1.9914 0.1998
vt 7.7515 2.8023 0.2817
vt 7.5014 0.1435 0.8101
vt 7.5014 0.8565 0.8101
vt 7.5014 0.9841 -0.3245
vt 7.5014 0.0375 -0.3245
vt 6.8195 1.2414 2.0129
vt 7.5014 1.2414 2.0129
vt 7.4582 1.5887 1.8931
vt 6.8627 2.5195 1.7991
vt 1.7337 3.0853 0.9995
vt 2.1740 2.2411 0.9995
vt 2.3808 2.4446 0.9878
vt 1.9963 3.1818 0.9878
vt 7.5014 1.1408 0.6860
vt 6.8195 1.1409 0.6860
vt 6.8627 2.4317 0.6403
vt 7.4582 1.5009 0.7343
vt 2.1740 2.2411 0.8153
vt 2.6140 3.5765 0.8269
vt 2.9985 2.8394 0.8269
vt 7.6380 1.8358 2.2211
vt 7.6380 3.3887 2.0642
vt 7.4582 0.8708 -0.1025
vt 7.4582 0.3691 -0.1532
vt 7.6380 0.2270 -0.2959
vt 7.6380 1.0322 -0.2145
vt 7.6380 1.6949 0.3617
vt 7.6380 3.2478 0.2049
vt 6.8627 0.1887 0.3212
vt 6.8627 0.8113 0.3212
vt 7.6380 0.9995 0.0005
vt 7.6380 0.0005 0.0005
vt 10.6764 1.8358 2.2211
vt 10.6764 3.3887 2.0642
vt 10.6764 0.2270 -0.2959
vt 10.6764 1.0322 -0.2145
vt 10.6764 3.2478 0.2049
vt 10.6764 1.6949 0.3617
vt 10.6764 0.9995 0.0005
vt 10.6764 0.0005 0.0005
vt 10.8762 2.1888 1.7170
vt 10.8762 2.9653 1.6386
vt 10.8762 0.4453 -0.4997
vt 10.8762 0.8479 -0.4590
vt 10.8762 2.8948 0.7089
vt 10.8762 2.1184 0.7874
vt 10.8762 0.7498 0.1483
vt 10.8762 0.2502 0.1483
vt 3.8040 -0.7490 -1.2140
vt 4.5290 -0.7490 -1.2140
vt 4.4496 -1.0799 -1.1009
vt 3.9924 -1.5975 -1.1532
vt 2.1740 2.2411 0.1964
vt 1.7337 1.3969 0.1964
vt 1.9942 1.3537 0.1749
vt 2.3380 2.0129 0.1749
vt 4.5290 -0.8495 0.1130
vt 3.8040 -0.8495 0.1130
vt 3.9924 -1.6760 -0.1170
vt 4.4496 -1.1584 -0.0647
vt 1.7337 1.3969 0.0005
vt 2.1740 2.2411 0.0005
vt 2.6815 1.7934 0.0514
vt 2.3377 1.1342 0.0514
vt 4.6370 -2.3496 -1.4974
vt 4.6370 -0.9819 -1.3593
vt 4.4496 0.8783 -2.0337
vt 4.4496 -0.0225 -2.0337
vt 4.6370 -0.2539 -1.9435
vt 4.6370 1.1097 -1.9435
vt 4.6370 -2.4684 0.0712
vt 4.6370 -1.1008 0.2093
vt 3.9924 0.0537 0.1352
vt 3.9924 0.7142 0.1213
vt 4.6370 0.8342 -0.0186
vt 4.6370 -0.1658 0.0024
vt 5.6251 -0.9819 -1.3593
vt 5.6251 -2.3496 -1.4974
vt 5.6251 -0.2539 -1.9435
vt 5.6251 1.1097 -1.9435
vt 5.6251 -2.4684 0.0712
vt 5.6251 -1.1008 0.2093
vt 5.6251 0.8342 -0.0186
vt 5.6251 -0.1658 0.0024
vt 5.8249 -1.3536 -1.0017
vt 5.8249 -2.0374 -1.0707
vt 5.8249 0.0870 -2.3398
vt 5.8249 0.7688 -2.3398
vt 5.8249 -2.0968 -0.2864
vt 5.8249 -1.4130 -0.2173
vt 5.8249 0.6062 0.0471
vt 5.8249 0.1062 0.0575
# 345 texture coords

g Cylinder01
s 1
f 1/1/1 2/2/1 3/3/2 4/4/3 
f 5/5/4 6/6/5 2/7/1 1/8/1 
f 7/9/6 8/10/7 6/11/5 5/12/4 
f 9/13/8 10/14/8 8/15/7 7/16/6 
f 11/17/9 12/18/10 10/19/8 9/20/8 
f 4/21/3 3/22/2 12/23/10 11/24/9 
f 13/25/11 14/26/12 15/27/13 16/28/14 
f 15/27/13 17/29/15 16/28/14 
f 18/30/16 13/25/11 16/28/14 
f 13/31/11 18/32/16 19/33/17 20/34/18 
f 14/35/12 13/36/11 20/37/18 21/38/19 
f 15/39/13 14/40/12 21/41/19 22/42/20 
f 17/43/15 15/44/13 22/45/20 23/46/21 
f 16/47/14 17/48/15 23/49/21 24/50/22 
f 18/51/16 16/52/14 24/53/22 19/54/17 
f 25/55/23 26/56/24 27/57/25 28/58/1 
f 29/59/26 25/60/23 28/61/1 30/62/27 
f 31/63/28 29/64/26 30/65/27 32/66/29 
f 33/67/30 31/68/28 32/69/29 34/70/8 
f 35/71/31 33/72/30 34/73/8 36/74/32 
f 26/75/24 35/76/31 36/77/32 27/78/25 
f 37/79/33 38/80/34 26/56/24 25/55/23 
f 39/81/35 40/82/36 41/83/37 42/84/38 
f 43/85/28 44/86/39 29/87/26 31/88/28 
f 45/89/40 43/90/28 31/68/28 33/67/30 
f 46/91/41 47/92/42 48/93/43 49/94/44 
f 38/95/34 50/96/45 35/76/31 26/75/24 
f 51/97/46 52/98/47 53/99/48 54/100/49 
f 55/101/4 56/102/50 37/103/33 44/104/39 
f 57/105/6 55/106/4 44/86/39 43/85/28 
f 58/107/8 57/108/6 43/90/28 45/89/40 
f 59/109/9 58/110/8 45/111/40 50/112/45 
f 60/113/51 59/114/9 50/96/45 38/95/34 
f 45/115/40 33/116/30 61/117/52 62/118/53 
f 33/119/30 35/120/31 63/121/54 61/122/52 
f 35/123/31 50/124/45 64/125/55 63/126/54 
f 50/127/45 45/128/40 62/129/53 64/130/55 
f 62/118/53 61/117/52 65/131/56 66/132/57 
f 61/122/52 63/121/54 67/133/58 65/134/56 
f 63/126/54 64/125/55 68/135/59 67/136/58 
f 64/130/55 62/129/53 66/137/57 68/138/59 
f 66/132/57 65/131/56 69/139/60 70/140/61 
f 65/141/56 67/142/58 71/143/62 69/144/60 
f 67/136/58 68/135/59 72/145/63 71/146/62 
f 68/147/59 66/148/57 70/149/61 72/150/63 
f 70/140/61 69/139/60 48/151/43 47/152/42 
f 69/144/60 71/143/62 49/153/44 48/154/43 
f 71/146/62 72/145/63 46/155/41 49/156/44 
f 72/150/63 70/149/61 47/157/42 46/158/41 
f 37/159/33 25/160/23 73/161/64 74/162/65 
f 25/163/23 29/164/26 75/165/66 73/166/64 
f 29/167/26 44/168/39 76/169/67 75/170/66 
f 44/171/39 37/172/33 74/173/65 76/174/67 
f 74/162/65 73/161/64 77/175/68 78/176/69 
f 73/166/64 75/165/66 79/177/70 77/178/68 
f 75/170/66 76/169/67 80/179/71 79/180/70 
f 76/181/67 74/182/65 78/183/69 80/184/71 
f 78/176/69 77/175/68 81/185/72 82/186/73 
f 77/187/68 79/188/70 83/189/74 81/190/72 
f 84/191/75 83/192/74 79/180/70 80/179/71 
f 80/184/71 78/183/69 82/193/73 84/194/75 
f 82/186/73 81/185/72 41/195/37 40/196/36 
f 81/190/72 83/189/74 42/197/38 41/198/37 
f 83/192/74 84/191/75 39/199/35 42/200/38 
f 84/194/75 82/193/73 40/201/36 39/202/35 
f 28/58/1 27/57/25 3/3/2 2/2/1 
f 30/62/27 28/61/1 2/7/1 6/6/5 
f 85/203/76 86/204/77 87/205/78 88/206/79 
f 34/70/8 32/69/29 8/15/7 10/14/8 
f 36/74/32 34/73/8 10/19/8 12/18/10 
f 89/207/80 90/208/81 91/209/82 92/210/83 
f 32/211/29 30/212/27 93/213/84 94/214/85 
f 30/215/27 6/216/5 95/217/86 93/218/84 
f 6/219/5 8/220/7 96/221/87 95/222/86 
f 8/223/7 32/224/29 94/225/85 96/226/87 
f 94/227/85 93/228/84 97/229/88 98/230/89 
f 97/231/88 93/218/84 95/217/86 99/232/90 
f 95/233/86 96/234/87 100/235/91 99/236/90 
f 96/226/87 94/225/85 98/237/89 100/238/91 
f 98/230/89 97/229/88 101/239/92 102/240/93 
f 97/231/88 99/232/90 103/241/94 101/242/92 
f 99/236/90 100/235/91 104/243/95 103/244/94 
f 100/238/91 98/237/89 102/245/93 104/246/95 
f 102/240/93 101/239/92 86/247/77 85/248/76 
f 101/242/92 103/241/94 87/249/78 86/250/77 
f 103/244/94 104/243/95 88/251/79 87/252/78 
f 104/246/95 102/245/93 85/253/76 88/254/79 
f 20/34/18 19/33/17 60/255/51 56/256/50 
f 21/38/19 20/37/18 56/102/50 55/101/4 
f 22/42/20 21/41/19 55/106/4 57/105/6 
f 23/46/21 22/45/20 57/108/6 58/107/8 
f 24/50/22 23/49/21 58/257/8 59/258/9 
f 19/54/17 24/53/22 59/114/9 60/113/51 
f 37/259/33 56/260/50 105/261/96 106/262/97 
f 56/263/50 60/264/51 107/265/98 105/266/96 
f 60/267/51 38/268/34 108/269/99 107/270/98 
f 38/271/34 37/172/33 106/272/97 108/273/99 
f 106/262/97 105/261/96 109/274/100 110/275/101 
f 105/276/96 107/277/98 111/278/102 109/279/100 
f 111/280/102 107/270/98 108/269/99 112/281/103 
f 108/282/99 106/283/97 110/284/101 112/285/103 
f 110/275/101 109/274/100 113/286/104 114/287/105 
f 109/279/100 111/278/102 115/288/106 113/289/104 
f 111/280/102 112/281/103 116/290/107 115/291/106 
f 112/285/103 110/284/101 114/292/105 116/293/107 
f 114/287/105 113/286/104 51/294/46 54/295/49 
f 113/289/104 115/288/106 52/296/47 51/297/46 
f 115/291/106 116/290/107 53/298/48 52/299/47 
f 116/293/107 114/292/105 54/300/49 53/301/48 
f 3/302/2 27/303/25 117/304/108 118/305/109 
f 27/306/25 36/307/32 119/308/110 117/309/108 
f 36/310/32 12/311/10 120/312/111 119/313/110 
f 12/314/10 3/315/2 118/316/109 120/317/111 
f 121/318/112 118/305/109 117/304/108 122/319/113 
f 117/320/108 119/321/110 123/322/114 122/323/113 
f 124/324/115 123/325/114 119/313/110 120/312/111 
f 120/326/111 118/327/109 121/328/112 124/329/115 
f 121/318/112 122/319/113 125/330/116 126/331/117 
f 122/323/113 123/322/114 127/332/118 125/333/116 
f 123/325/114 124/324/115 128/334/119 127/335/118 
f 124/329/115 121/328/112 126/336/117 128/337/119 
f 126/331/117 125/330/116 89/338/80 92/339/83 
f 125/333/116 127/332/118 90/340/81 89/341/80 
f 127/335/118 128/334/119 91/342/82 90/343/81 
f 128/337/119 126/336/117 92/344/83 91/345/82 
# 123 polygons - 2 triangles

