# 3ds Max Wavefront OBJ Exporter v0.94b - (c)2007 guruware
# File Created: 10.10.2009 23:57:34

#
# object stone02
#

v  -0.0940 0.2601 0.1806
v  0.0816 0.3417 0.2282
v  0.0719 0.4545 0.1579
v  -0.1353 0.3396 0.1092
v  0.1906 0.3592 0.2721
v  0.2351 0.4613 0.1171
v  -0.0085 0.3603 -0.0182
v  -0.0977 0.2530 -0.0242
v  0.1148 0.4751 -0.0198
v  -0.1849 -0.0000 0.1073
v  0.0074 0.0000 0.1876
v  -0.0093 0.1301 0.2568
v  -0.2064 0.1062 0.2094
v  0.2091 -0.0000 0.1066
v  0.2316 0.1382 0.2612
v  0.2308 -0.0000 -0.0163
v  0.2659 0.0666 -0.0058
v  0.1818 -0.0000 -0.1971
v  0.1898 0.1382 -0.2340
v  0.3075 0.2848 0.2944
v  0.3596 0.2398 0.1179
v  0.3681 0.3864 0.1342
v  0.3443 0.3886 0.2058
v  0.3077 0.2440 -0.0652
v  0.2215 0.4402 -0.0795
v  0.3001 0.4451 0.0142
v  0.0034 0.0000 -0.2321
v  -0.0146 0.1916 -0.3191
v  -0.1734 0.0000 -0.1611
v  -0.1844 0.0971 -0.1622
v  0.0555 0.2548 -0.2603
v  -0.0335 0.2827 -0.3107
v  -0.0513 0.3514 -0.1557
v  0.0274 0.3422 -0.1504
v  -0.1294 0.2299 -0.2418
v  -0.1175 0.3088 -0.1526
v  -0.2136 0.0000 0.0041
v  -0.2568 0.1301 0.0396
v  0.2602 0.3330 -0.1885
v  0.1595 0.3445 -0.2703
v  0.1045 0.3812 -0.1689
v  0.3428 0.2879 0.0280
v  0.3496 0.4102 0.0689
# 43 vertices

vn -0.4008 0.4289 0.8096
vn -0.2976 0.4441 0.8451
vn -0.4009 0.4273 0.8104
vn -0.4106 0.4346 0.8016
vn -0.3095 0.8118 0.4951
vn -0.0587 0.6842 0.7269
vn 0.1716 0.4938 0.8525
vn -0.5517 0.6919 -0.4657
vn -0.4131 0.8594 -0.3013
vn -0.5103 0.7452 -0.4293
vn -0.4558 0.6487 -0.6095
vn -0.3459 0.9379 0.0276
vn -0.0131 0.9922 0.1238
vn -0.4128 0.9108 0.0062
vn -0.6794 0.7284 -0.0886
vn -0.1771 -0.5826 0.7932
vn -0.3160 -0.4427 0.8391
vn -0.1650 -0.1633 0.9727
vn -0.1761 -0.3725 0.9112
vn 0.1047 -0.5631 0.8197
vn 0.2404 -0.7084 0.6637
vn 0.0142 -0.3013 0.9534
vn -0.0886 0.1823 0.9792
vn 0.8829 -0.4129 0.2237
vn 0.8621 -0.4776 0.1695
vn 0.8413 -0.4889 0.2307
vn 0.7996 -0.5098 0.3174
vn 0.8735 -0.2929 -0.3890
vn 0.9501 -0.1241 -0.2861
vn 0.7688 -0.1979 -0.6081
vn 0.8533 -0.3197 -0.4120
vn 0.8750 -0.3053 0.3757
vn 0.8552 -0.3906 0.3406
vn 0.9377 -0.0793 0.3381
vn 0.9353 -0.0635 0.3482
vn 0.7971 0.1966 -0.5709
vn 0.6989 0.2632 -0.6651
vn 0.7332 0.2525 -0.6314
vn 0.2269 -0.2994 -0.9268
vn 0.1624 -0.3607 -0.9184
vn 0.2156 -0.3104 -0.9258
vn 0.2854 -0.2401 -0.9279
vn -0.4345 -0.2867 -0.8538
vn -0.3399 -0.0485 -0.9392
vn -0.4425 -0.2074 -0.8724
vn -0.5169 -0.2047 -0.8312
vn 0.3533 0.8239 -0.4431
vn 0.4382 0.8276 -0.3507
vn 0.2064 0.9131 -0.3515
vn -0.1173 0.8966 -0.4270
vn -0.5893 0.6588 -0.4677
vn -0.6418 0.5927 -0.4865
vn -0.5626 0.6887 -0.4574
vn -0.5006 0.7501 -0.4321
vn -0.9354 -0.1635 -0.3135
vn -0.9352 -0.2481 -0.2525
vn -0.8787 0.2859 -0.3824
vn -0.8908 0.1668 -0.4226
vn -0.8902 -0.3793 0.2523
vn -0.8714 -0.4101 0.2693
vn -0.9161 0.2094 0.3418
vn -0.9234 0.0263 0.3830
vn -0.7328 0.3432 0.5876
vn -0.6961 0.1966 0.6906
vn -0.6647 0.6817 0.3057
vn -0.7560 0.6176 0.2168
vn -0.6290 0.7011 0.3357
vn -0.4701 0.7608 0.4474
vn -0.4542 0.8503 -0.2659
vn -0.3035 0.7358 -0.6054
vn -0.0082 0.8186 -0.5743
vn 0.4828 0.6795 -0.5524
vn 0.1778 0.8312 -0.5268
vn -0.3332 0.9232 -0.1918
vn 0.4371 0.2641 -0.8597
vn 0.3824 0.1551 -0.9109
vn 0.4239 0.2367 -0.8742
vn 0.5136 0.4417 -0.7357
vn -0.5501 -0.1593 -0.8198
vn -0.5278 -0.0397 -0.8485
vn -0.9509 0.2971 0.0866
vn -0.9156 0.2775 0.2910
vn -0.9478 0.2946 0.1224
vn -0.9395 0.3035 -0.1588
vn 0.1811 0.9728 -0.1443
vn 0.1680 0.9843 -0.0538
vn 0.1782 0.9762 -0.1234
vn 0.9646 0.0083 -0.2637
vn 0.9744 -0.0347 -0.2221
vn 0.9706 -0.0161 -0.2402
vn 0.9572 0.0335 -0.2876
vn 0.8797 0.0613 -0.4715
vn 0.8866 -0.2245 -0.4044
vn -0.2617 0.2470 -0.9330
vn 0.0093 0.2109 -0.9775
vn -0.4482 0.6037 -0.6593
vn -0.5060 0.6001 -0.6196
vn 0.2095 0.8486 0.4859
vn 0.0841 0.7915 0.6054
vn 0.3054 0.8740 0.3780
vn 0.4725 0.8693 0.1454
vn -0.0319 0.2137 0.9764
vn 0.2099 0.5486 0.8093
vn 0.9131 -0.2762 -0.2998
vn 0.9006 -0.2658 -0.3440
vn 0.7986 0.2092 -0.5643
vn 0.9054 0.0756 -0.4177
vn 0.4571 0.8699 0.1852
vn 0.4672 0.8663 0.1768
vn 0.4500 0.8724 0.1910
vn 0.3925 0.8889 0.2361
vn 0.4496 0.8691 -0.2061
# 112 vertex normals

vt 0.4884 0.2220 0.0000
vt 0.5678 0.5245 0.0000
vt 0.3949 0.5150 0.0000
vt 0.3126 0.0174 0.0000
vt 0.6655 0.7074 0.0000
vt 0.4247 0.8378 0.0000
vt 0.2009 0.3586 0.0000
vt 0.0763 0.1454 0.0000
vt 0.2760 0.6234 0.0000
vt 0.8685 0.0277 0.0000
vt 0.9520 0.3074 0.0000
vt 0.7596 0.3574 0.0000
vt 0.7192 0.0584 0.0000
vt 1.1241 0.5630 0.0000
vt 0.8711 0.6769 0.0000
vt 1.3180 0.6153 0.0000
vt 1.2234 0.8034 0.0000
vt -0.3998 0.9801 0.0000
vt -0.3541 0.7847 0.0000
vt -0.1942 0.7857 0.0000
vt -0.2222 1.1273 0.0000
vt 0.6964 0.8371 0.0000
vt 0.7922 1.0276 0.0000
vt 0.5106 1.1928 0.0000
vt 0.5995 0.9705 0.0000
vt 0.0285 1.0819 0.0000
vt 0.2094 0.7770 0.0000
vt 0.3202 0.9052 0.0000
vt -0.3657 0.5435 0.0000
vt -0.1375 0.5096 0.0000
vt -0.3911 0.2801 0.0000
vt -0.3236 0.1511 0.0000
vt -0.0895 0.5821 0.0000
vt -0.0870 0.4802 0.0000
vt 0.0358 0.3709 0.0000
vt 0.0449 0.4883 0.0000
vt -0.1762 0.3028 0.0000
vt -0.0286 0.2822 0.0000
vt -0.5133 0.1393 0.0000
vt -0.2816 -0.1514 0.0000
vt 0.8690 -0.1046 0.0000
vt 0.5153 -0.1957 0.0000
vt 0.0427 0.7970 0.0000
vt -0.0075 0.6914 0.0000
vt 0.0726 0.6138 0.0000
vt 0.2891 1.2672 0.0000
vt 0.1994 1.1272 0.0000
vt 0.3809 1.0235 0.0000
# 48 texture coords

g stone02
s 1
f 1/1/1 2/2/2 3/3/3 4/4/4 
s 2
f 2/2/2 5/5/5 6/6/6 3/3/7 
s 4
f 4/4/8 3/3/9 7/7/10 8/8/11 
s 8
f 3/3/12 6/6/13 9/9/14 7/7/15 
s 2
f 10/10/16 11/11/17 12/12/18 13/13/19 
s 4
f 11/11/20 14/14/21 15/15/22 12/12/18 
s 3
f 13/13/19 12/12/18 2/2/2 1/1/1 
s 13
f 12/12/18 15/15/22 5/5/23 
s 2
f 14/14/24 16/16/25 17/17/26 15/15/27 
s 4
f 16/18/28 18/19/29 19/20/30 17/21/31 
s 3
f 20/22/32 21/23/33 22/24/34 23/25/35 
s 1
f 24/26/36 25/27/37 26/28/38 
s 2
f 18/19/39 27/29/40 28/30/41 19/20/42 
s 8
f 27/29/43 29/31/44 30/32/45 28/30/46 
s 33
f 31/33/47 32/34/48 33/35/49 34/36/50 
s 2
f 32/34/51 35/37/52 36/38/53 33/35/54 
s 6
f 29/31/55 37/39/56 38/40/57 30/32/58 
s 8
f 37/41/59 10/10/60 13/13/61 38/42/62 
s 6
f 30/32/58 38/40/57 4/4/8 8/8/11 
s 24
f 38/42/62 13/13/61 1/1/63 4/4/64 
s 16
f 8/8/65 7/7/66 33/35/67 36/38/68 
s 32
f 7/7/69 9/9/70 34/36/50 33/35/49 
s 16
f 25/27/71 39/43/72 40/44/73 41/45/74 
f 19/20/75 28/30/76 32/34/77 31/33/78 
s 8
f 28/30/46 30/32/45 35/37/79 32/34/80 
s 1
f 30/32/81 8/8/82 36/38/83 35/37/84 
s 4
f 9/9/85 6/6/86 26/28/87 
s 8
f 22/24/88 21/46/89 42/47/90 43/48/91 
s 4
f 17/21/31 19/20/30 39/43/92 24/26/93 
s 12
f 19/20/30 31/33/94 40/44/95 39/43/92 
s 4
f 31/33/94 34/36/96 41/45/97 40/44/95 
s 48
f 34/36/50 9/9/70 25/27/71 41/45/74 
s 16
f 6/6/98 5/5/99 23/25/100 22/24/101 
s 8
f 5/5/23 15/15/22 20/22/102 23/25/103 
s 2
f 15/15/27 17/17/26 21/23/33 20/22/32 
s 4
f 17/21/31 24/26/93 42/47/104 21/46/105 
s 1
f 24/26/36 26/28/38 43/48/106 42/47/107 
s 32
f 26/28/108 6/6/109 22/24/110 43/48/111 
s 4
f 24/26/93 39/43/92 25/27/112 
f 26/28/87 25/27/112 9/9/85 
s 1
f 5/5/23 2/2/2 12/12/18 
# 35 polygons - 6 triangles

