# 3ds Max Wavefront OBJ Exporter v0.94b - (c)2007 guruware
# File Created: 10.10.2009 23:57:23

#
# object stone01
#

v  0.0859 0.4202 0.1878
v  0.1911 0.4291 0.0682
v  0.0202 0.6361 -0.0123
v  -0.0597 0.5428 0.1358
v  0.2430 0.3953 -0.0893
v  0.0781 0.5048 -0.2023
v  -0.1482 0.4941 -0.1523
v  -0.1964 0.4552 0.0015
v  -0.0369 0.4599 -0.1805
v  0.0268 0.0000 0.3035
v  0.2560 0.0000 0.2006
v  0.2820 0.2366 0.2234
v  0.0225 0.2366 0.3805
v  0.3340 0.0000 0.0173
v  0.3762 0.2366 0.0147
v  0.2086 0.0000 -0.2265
v  0.1582 0.3328 -0.2708
v  -0.0818 0.0000 -0.3404
v  -0.0564 0.2331 -0.3762
v  -0.1966 0.0000 -0.1976
v  -0.2877 0.2331 -0.2217
v  -0.3186 0.0000 0.0116
v  -0.3666 0.2366 -0.0470
v  -0.1881 0.0000 0.2245
v  -0.1980 0.2366 0.2358
# 25 vertices

vn 0.4611 0.6746 0.5764
vn 0.7763 0.6285 0.0483
vn 0.7570 0.6224 -0.1989
vn 0.1948 0.6865 -0.7005
vn -0.0778 0.9558 -0.2837
vn -0.6433 0.7625 0.0686
vn -0.4955 0.7290 -0.4723
vn -0.7009 0.7079 -0.0877
vn -0.0968 0.6293 -0.7711
vn 0.4598 -0.2036 0.8644
vn 0.9056 -0.1474 0.3977
vn 0.4649 0.6192 0.6328
vn 0.7231 0.6481 0.2387
vn 0.7247 0.6802 0.1101
vn 0.8357 -0.0332 -0.5482
vn 0.4122 -0.1120 -0.9042
vn -0.2133 -0.2228 -0.9512
vn -0.0768 0.1983 -0.9771
vn 0.4291 0.3909 -0.8143
vn -0.7312 -0.3463 -0.5877
vn -0.7064 0.3311 -0.6255
vn -0.8390 -0.3253 -0.4362
vn -0.7072 0.6242 -0.3321
vn -0.8550 -0.0532 0.5159
vn -0.4498 -0.1769 0.8754
vn -0.7510 0.4853 0.4477
vn -0.2339 0.5679 0.7892
# 27 vertex normals

vt 1.2578 1.2301 0.0000
vt 1.4335 1.3868 0.0000
vt 0.8146 1.3655 0.0000
vt 0.8737 1.1700 0.0000
vt -0.0762 1.1545 0.0000
vt -0.0723 0.8530 0.0000
vt 0.2788 0.8046 0.0000
vt 0.4604 1.1524 0.0000
vt 0.5138 0.7727 0.0000
vt 0.6655 0.7908 0.0000
vt 0.4033 0.7196 0.0000
vt 1.5186 0.4895 0.0000
vt 1.8530 0.3528 0.0000
vt 1.8114 0.9457 0.0000
vt 1.3816 0.8502 0.0000
vt -0.8541 0.7179 0.0000
vt -0.6435 0.5451 0.0000
vt -0.4143 0.8292 0.0000
vt -0.5726 1.1280 0.0000
vt -0.3551 0.2772 0.0000
vt 0.1255 0.5735 0.0000
vt -0.0354 -0.0400 0.0000
vt 0.2044 0.2323 0.0000
vt -0.1987 -0.2050 0.0000
vt 0.4681 0.1105 0.0000
vt 0.7278 -0.1981 0.0000
vt 0.9753 0.1309 0.0000
vt 0.7113 0.2929 0.0000
vt 1.2592 0.3369 0.0000
vt 1.0709 0.6931 0.0000
# 30 texture coords

g stone01
s off
f 1/1/1 2/2/1 3/3/1 4/4/1 
s 1
f 2/5/2 5/6/3 6/7/4 3/8/5 
f 4/4/6 3/3/5 7/9/7 8/10/8 
f 3/8/5 6/7/4 9/11/9 
s off
f 10/12/10 11/13/10 12/14/10 13/15/10 
f 11/16/11 14/17/11 15/18/11 12/19/11 
f 13/15/12 12/14/12 2/2/12 1/1/12 
s 1
f 12/19/13 15/18/14 5/6/3 2/5/2 
s off
f 14/17/15 16/20/15 17/21/15 15/18/15 
s 1
f 16/20/16 18/22/17 19/23/18 17/21/19 
f 5/6/3 15/18/14 17/21/19 6/7/4 
f 17/21/19 19/23/18 9/11/9 6/7/4 
f 18/22/17 20/24/20 21/25/21 19/23/18 
s off
f 20/26/22 22/27/22 23/28/22 21/25/22 
s 1
f 19/23/18 21/25/21 7/9/7 9/11/9 
f 21/25/21 23/28/23 8/10/8 7/9/7 
s off
f 22/27/24 24/29/24 25/30/24 23/28/24 
f 24/29/25 10/12/25 13/15/25 25/30/25 
f 23/28/26 25/30/26 4/4/26 8/10/26 
f 25/30/27 13/15/27 1/1/27 4/4/27 
s 1
f 9/11/9 7/9/7 3/8/5 
# 19 polygons - 2 triangles

