# 3ds Max Wavefront OBJ Exporter v0.94b - (c)2007 guruware
# File Created: 30.09.2009 01:29:17

#
# object cage
#

v  0.3367 0.8000 0.3367
v  -0.3367 0.8000 0.3367
v  -0.4000 0.8000 0.4000
v  0.4000 0.8000 0.4000
v  0.3367 0.8000 -0.3367
v  0.4000 0.8000 -0.4000
v  -0.3367 0.8000 -0.3367
v  -0.4000 0.8000 -0.4000
v  0.3367 0.0633 0.4000
v  -0.3367 0.0633 0.4000
v  -0.4000 0.0000 0.4000
v  0.4000 0.0000 0.4000
v  0.3367 0.7367 0.4000
v  -0.3367 0.7367 0.4000
v  0.4000 0.0633 -0.3367
v  0.4000 0.0633 0.3367
v  0.4000 0.0000 -0.4000
v  0.4000 0.7367 -0.3367
v  0.4000 0.7367 0.3367
v  -0.3367 0.0633 -0.4000
v  0.3367 0.0633 -0.4000
v  -0.4000 0.0000 -0.4000
v  -0.3367 0.7367 -0.4000
v  0.3367 0.7367 -0.4000
v  -0.4000 0.0633 0.3367
v  -0.4000 0.0633 -0.3367
v  -0.4000 0.7367 0.3367
v  -0.4000 0.7367 -0.3367
v  0.3369 0.7371 0.3369
v  -0.3370 0.7370 0.3370
v  0.3370 0.7370 -0.3370
v  -0.3370 0.7370 -0.3370
v  0.3370 0.0630 0.3370
v  -0.3370 0.0630 0.3370
v  0.3370 0.0630 -0.3370
v  -0.3369 0.0631 -0.3371
v  -0.2610 0.0300 0.3699
v  -0.2387 0.0300 0.3922
v  -0.2387 0.7734 0.3922
v  -0.2610 0.7734 0.3699
v  -0.2164 0.0300 0.3699
v  -0.2164 0.7734 0.3699
v  -0.2387 0.0300 0.3476
v  -0.2387 0.7734 0.3476
v  -0.1010 0.0300 0.3699
v  -0.0787 0.0300 0.3922
v  -0.0787 0.7734 0.3922
v  -0.1010 0.7734 0.3699
v  -0.0564 0.0300 0.3699
v  -0.0564 0.7734 0.3699
v  -0.0787 0.0300 0.3476
v  -0.0787 0.7734 0.3476
v  0.0590 0.0300 0.3699
v  0.0813 0.0300 0.3922
v  0.0813 0.7734 0.3922
v  0.0590 0.7734 0.3699
v  0.1036 0.0300 0.3699
v  0.1036 0.7734 0.3699
v  0.0813 0.0300 0.3476
v  0.0813 0.7734 0.3476
v  0.2190 0.0300 0.3699
v  0.2413 0.0300 0.3922
v  0.2413 0.7734 0.3922
v  0.2190 0.7734 0.3699
v  0.2636 0.0300 0.3699
v  0.2636 0.7734 0.3699
v  0.2413 0.0300 0.3476
v  0.2413 0.7734 0.3476
v  -0.1010 0.0300 -0.3627
v  -0.0787 0.0300 -0.3404
v  -0.0787 0.7734 -0.3404
v  -0.1010 0.7734 -0.3627
v  -0.0564 0.0300 -0.3627
v  -0.0564 0.7734 -0.3627
v  -0.0787 0.0300 -0.3849
v  -0.0787 0.7734 -0.3849
v  0.0590 0.0300 -0.3627
v  0.0813 0.0300 -0.3404
v  0.0813 0.7734 -0.3404
v  0.0590 0.7734 -0.3627
v  0.1036 0.0300 -0.3627
v  0.1036 0.7734 -0.3627
v  0.0813 0.0300 -0.3849
v  0.0813 0.7734 -0.3849
v  0.2190 0.0300 -0.3627
v  0.2413 0.0300 -0.3404
v  0.2413 0.7734 -0.3404
v  0.2190 0.7734 -0.3627
v  0.2636 0.0300 -0.3627
v  0.2636 0.7734 -0.3627
v  0.2413 0.0300 -0.3849
v  0.2413 0.7734 -0.3849
v  -0.2610 0.0300 -0.3627
v  -0.2387 0.0300 -0.3404
v  -0.2387 0.7734 -0.3404
v  -0.2610 0.7734 -0.3627
v  -0.2164 0.0300 -0.3627
v  -0.2164 0.7734 -0.3627
v  -0.2387 0.0300 -0.3849
v  -0.2387 0.7734 -0.3849
v  -0.3622 0.0300 0.1024
v  -0.3399 0.0300 0.0801
v  -0.3399 0.7734 0.0801
v  -0.3622 0.7734 0.1024
v  -0.3622 0.0300 0.0578
v  -0.3622 0.7734 0.0578
v  -0.3845 0.0300 0.0801
v  -0.3845 0.7734 0.0801
v  -0.3622 0.0300 -0.0576
v  -0.3399 0.0300 -0.0799
v  -0.3399 0.7734 -0.0799
v  -0.3622 0.7734 -0.0576
v  -0.3622 0.0300 -0.1022
v  -0.3622 0.7734 -0.1022
v  -0.3845 0.0300 -0.0799
v  -0.3845 0.7734 -0.0799
v  -0.3622 0.0300 -0.2176
v  -0.3399 0.0300 -0.2399
v  -0.3399 0.7734 -0.2399
v  -0.3622 0.7734 -0.2176
v  -0.3622 0.0300 -0.2622
v  -0.3622 0.7734 -0.2622
v  -0.3845 0.0300 -0.2399
v  -0.3845 0.7734 -0.2399
v  -0.3622 0.0300 0.2624
v  -0.3399 0.0300 0.2401
v  -0.3399 0.7734 0.2401
v  -0.3622 0.7734 0.2624
v  -0.3622 0.0300 0.2178
v  -0.3622 0.7734 0.2178
v  -0.3845 0.0300 0.2401
v  -0.3845 0.7734 0.2401
v  0.3650 0.0300 0.1024
v  0.3873 0.0300 0.0801
v  0.3873 0.7734 0.0801
v  0.3650 0.7734 0.1024
v  0.3650 0.0300 0.0578
v  0.3650 0.7734 0.0578
v  0.3427 0.0300 0.0801
v  0.3427 0.7734 0.0801
v  0.3650 0.0300 -0.0576
v  0.3873 0.0300 -0.0799
v  0.3873 0.7734 -0.0799
v  0.3650 0.7734 -0.0576
v  0.3650 0.0300 -0.1022
v  0.3650 0.7734 -0.1022
v  0.3427 0.0300 -0.0799
v  0.3427 0.7734 -0.0799
v  0.3650 0.0300 -0.2176
v  0.3873 0.0300 -0.2399
v  0.3873 0.7734 -0.2399
v  0.3650 0.7734 -0.2176
v  0.3650 0.0300 -0.2622
v  0.3650 0.7734 -0.2622
v  0.3427 0.0300 -0.2399
v  0.3427 0.7734 -0.2399
v  0.3650 0.0300 0.2624
v  0.3873 0.0300 0.2401
v  0.3873 0.7734 0.2401
v  0.3650 0.7734 0.2624
v  0.3650 0.0300 0.2178
v  0.3650 0.7734 0.2178
v  0.3427 0.0300 0.2401
v  0.3427 0.7734 0.2401
v  -0.3715 0.7677 0.1024
v  -0.3715 0.7454 0.0801
v  0.3719 0.7454 0.0801
v  0.3719 0.7677 0.1024
v  -0.3715 0.7677 0.0578
v  0.3719 0.7677 0.0578
v  -0.3715 0.7900 0.0801
v  0.3719 0.7900 0.0801
v  -0.3715 0.7677 -0.0576
v  -0.3715 0.7454 -0.0799
v  0.3719 0.7454 -0.0799
v  0.3719 0.7677 -0.0576
v  -0.3715 0.7677 -0.1022
v  0.3719 0.7677 -0.1022
v  -0.3715 0.7900 -0.0799
v  0.3719 0.7900 -0.0799
v  -0.3715 0.7677 -0.2176
v  -0.3715 0.7454 -0.2399
v  0.3719 0.7454 -0.2399
v  0.3719 0.7677 -0.2176
v  -0.3715 0.7677 -0.2622
v  0.3719 0.7677 -0.2622
v  -0.3715 0.7900 -0.2399
v  0.3719 0.7900 -0.2399
v  -0.3715 0.7677 0.2624
v  -0.3715 0.7454 0.2401
v  0.3719 0.7454 0.2401
v  0.3719 0.7677 0.2624
v  -0.3715 0.7677 0.2178
v  0.3719 0.7677 0.2178
v  -0.3715 0.7900 0.2401
v  0.3719 0.7900 0.2401
# 196 vertices

vn 0.0000 1.0000 -0.0000
vn 0.0000 0.0000 1.0000
vn 1.0000 0.0000 -0.0000
vn 0.0000 0.0000 -1.0000
vn -1.0000 0.0000 -0.0000
vn -0.0001 -0.0044 -1.0000
vn -1.0000 -0.0044 -0.0001
vn 0.0000 -0.0050 1.0000
vn 1.0000 -0.0050 -0.0000
vn -1.0000 -0.0001 -0.0044
vn 0.0001 -1.0000 -0.0063
vn 1.0000 0.0000 -0.0050
vn -0.0050 0.0000 1.0000
vn -0.0063 -1.0000 0.0001
vn -0.0044 -0.0001 -1.0000
vn 1.0000 0.0001 0.0044
vn 0.0000 -1.0000 0.0050
vn -1.0000 0.0000 0.0050
vn 0.0044 1.0000 0.0001
vn 0.0000 1.0000 -0.0050
vn -0.0050 1.0000 -0.0000
vn 0.0001 1.0000 0.0044
vn 0.0001 1.0000 0.0001
vn 0.0050 0.0000 -1.0000
vn 0.0050 -1.0000 -0.0000
vn 0.0063 -0.0001 1.0000
vn -0.0000 0.0000 1.0000
vn -0.0000 0.0000 -1.0000
vn 1.0000 0.0000 0.0000
vn -1.0000 0.0000 0.0000
vn -0.0000 -1.0000 0.0000
vn 0.0000 -1.0000 0.0000
vn 0.0000 -0.0000 -1.0000
vn 0.0000 -1.0000 -0.0000
vn -0.0000 -1.0000 -0.0000
vn -0.0000 -0.0000 1.0000
vn 0.0000 1.0000 0.0000
# 37 vertex normals

vt 0.9204 0.0796 0.9995
vt 0.0796 0.0796 0.9995
vt 0.0005 0.0005 0.9995
vt 0.9995 0.0005 0.9995
vt 0.9204 0.9204 0.9995
vt 0.9995 0.9995 0.9995
vt 0.0796 0.9204 0.9995
vt 0.0005 0.9995 0.9995
vt 0.9204 0.0796 0.0005
vt 0.0796 0.0796 0.0005
vt 0.0005 0.0005 0.0005
vt 0.9995 0.0005 0.0005
vt 0.9204 0.9204 0.0005
vt 0.9995 0.9995 0.0005
vt 0.0796 0.9204 0.0005
vt 0.0005 0.9995 0.0005
vt 0.0793 0.9210 0.0793
vt 0.9208 0.9208 0.0792
vt 0.9204 0.9995 0.0796
vt 0.0796 0.9995 0.0796
vt 0.0792 0.9208 0.9208
vt 0.9207 0.9210 0.9207
vt 0.9204 0.9995 0.9204
vt 0.0796 0.9995 0.9204
vt 0.9208 0.9208 0.9208
vt 0.0792 0.9208 0.0792
vt 0.9208 0.0792 0.9208
vt 0.9995 0.0796 0.9204
vt 0.9995 0.9204 0.9204
vt 0.0793 0.0793 0.9210
vt 0.0796 0.0005 0.9204
vt 0.9204 0.0005 0.9204
vt 0.0792 0.0792 0.0792
vt 0.0005 0.9204 0.0796
vt 0.0005 0.0796 0.0796
vt 0.0005 0.9204 0.9204
vt 0.0005 0.0796 0.9204
vt 0.9210 0.0793 0.0793
vt 0.9995 0.0796 0.0796
vt 0.9995 0.9204 0.0796
vt 0.0792 0.0792 0.9208
vt -0.0933 0.9997 0.5000
vt -0.0933 0.0027 0.5000
vt 0.0000 0.0021 0.5000
vt 0.0001 1.0002 0.5000
vt 0.0005 -0.0913 0.5000
vt 0.9975 -0.0933 0.5000
vt 0.9979 0.0000 0.5000
vt 1.0914 0.0005 0.5000
vt 1.0935 0.9995 0.5000
vt 1.0000 1.0000 0.5000
vt 0.9997 1.0935 0.5000
vt 0.0007 1.0935 0.5000
vt 0.9208 0.0792 0.0792
vt 0.0001 0.0005 0.0005
vt 0.2499 0.0005 0.0005
vt 0.2499 0.9995 0.0005
vt 0.0001 0.9995 0.0005
vt 0.0001 0.0005 0.9995
vt 0.2499 0.0005 0.9995
vt 0.2499 0.9995 0.9995
vt 0.0001 0.9995 0.9995
# 62 texture coords

g cage
s off
f 1/1/1 2/2/1 3/3/1 4/4/1 
f 5/5/1 1/1/1 4/4/1 6/6/1 
f 7/7/1 5/5/1 6/6/1 8/8/1 
f 2/2/1 7/7/1 8/8/1 3/3/1 
f 9/9/2 10/10/2 11/11/2 12/12/2 
f 13/13/2 9/9/2 12/12/2 4/14/2 
f 14/15/2 13/13/2 4/14/2 3/16/2 
f 10/10/2 14/15/2 3/16/2 11/11/2 
f 15/1/3 16/2/3 12/3/3 17/4/3 
f 18/5/3 15/1/3 17/4/3 6/6/3 
f 19/7/3 18/5/3 6/6/3 4/8/3 
f 16/2/3 19/7/3 4/8/3 12/3/3 
f 20/1/4 21/2/4 17/3/4 22/4/4 
f 23/5/4 20/1/4 22/4/4 8/6/4 
f 24/7/4 23/5/4 8/6/4 6/8/4 
f 21/2/4 24/7/4 6/8/4 17/3/4 
f 25/9/5 26/10/5 22/11/5 11/12/5 
f 27/13/5 25/9/5 11/12/5 3/14/5 
f 28/15/5 27/13/5 3/14/5 8/16/5 
f 26/10/5 28/15/5 8/16/5 22/11/5 
f 29/17/6 30/18/6 2/19/6 1/20/6 
f 31/21/7 29/22/7 1/23/7 5/24/7 
f 32/21/8 31/25/8 5/23/8 7/24/8 
f 30/26/9 32/18/9 7/19/9 2/20/9 
f 29/22/10 33/27/10 9/28/10 13/29/10 
f 30/27/11 29/30/11 13/31/11 14/32/11 
f 34/33/12 30/26/12 14/34/12 10/35/12 
f 31/25/13 35/27/13 15/28/13 18/29/13 
f 29/30/14 31/21/14 18/36/14 19/37/14 
f 33/33/15 29/17/15 19/34/15 16/35/15 
f 32/18/16 36/38/16 20/39/16 23/40/16 
f 31/21/17 32/25/17 23/23/17 24/24/17 
f 35/41/18 31/21/18 24/36/18 21/37/18 
f 26/42/19 25/43/19 34/44/19 36/45/19 
f 10/46/20 9/47/20 33/48/20 34/44/20 
f 16/49/21 15/50/21 35/51/21 33/48/21 
f 21/52/22 20/53/22 36/45/22 35/51/22 
f 33/48/23 35/51/23 36/45/23 34/44/23 
f 30/18/24 34/54/24 25/39/24 27/40/24 
f 32/25/25 30/27/25 27/28/25 28/29/25 
f 36/30/26 32/21/26 28/36/26 26/37/26 
s 1
f 37/55/5 38/56/2 39/57/2 40/58/5 
f 38/59/2 41/60/3 42/61/3 39/62/2 
f 41/59/3 43/60/4 44/61/4 42/62/3 
f 43/55/4 37/56/5 40/57/5 44/58/4 
f 45/55/5 46/56/27 47/57/27 48/58/5 
f 46/59/27 49/60/3 50/61/3 47/62/27 
f 49/59/3 51/60/28 52/61/28 50/62/3 
f 51/55/28 45/56/5 48/57/5 52/58/28 
f 53/55/5 54/56/27 55/57/27 56/58/5 
f 54/59/27 57/60/3 58/61/3 55/62/27 
f 57/59/3 59/60/28 60/61/28 58/62/3 
f 59/55/28 53/56/5 56/57/5 60/58/28 
f 61/55/5 62/56/27 63/57/27 64/58/5 
f 62/59/27 65/60/29 66/61/29 63/62/27 
f 65/59/29 67/60/4 68/61/4 66/62/29 
f 67/55/4 61/56/5 64/57/5 68/58/4 
f 69/55/30 70/56/2 71/57/2 72/58/30 
f 70/59/2 73/60/29 74/61/29 71/62/2 
f 73/59/29 75/60/4 76/61/4 74/62/29 
f 75/55/4 69/56/30 72/57/30 76/58/4 
f 77/55/30 78/56/2 79/57/2 80/58/30 
f 78/59/2 81/60/29 82/61/29 79/62/2 
f 81/59/29 83/60/4 84/61/28 82/62/29 
f 83/55/4 77/56/30 80/57/30 84/58/28 
f 85/55/30 86/56/27 87/57/27 88/58/5 
f 86/59/27 89/60/3 90/61/3 87/62/27 
f 89/59/3 91/60/28 92/61/28 90/62/3 
f 91/55/28 85/56/30 88/57/5 92/58/28 
f 93/55/5 94/56/27 95/57/27 96/58/5 
f 94/59/27 97/60/3 98/61/3 95/62/27 
f 97/59/3 99/60/28 100/61/28 98/62/3 
f 99/55/28 93/56/5 96/57/5 100/58/28 
f 101/55/2 102/56/3 103/57/3 104/58/2 
f 102/59/3 105/60/28 106/61/28 103/62/3 
f 105/59/28 107/60/30 108/61/30 106/62/28 
f 107/55/30 101/56/2 104/57/2 108/58/30 
f 109/55/2 110/56/3 111/57/3 112/58/2 
f 110/59/3 113/60/28 114/61/28 111/62/3 
f 113/59/28 115/60/30 116/61/30 114/62/28 
f 115/55/30 109/56/2 112/57/2 116/58/30 
f 117/55/2 118/56/3 119/57/3 120/58/27 
f 118/59/3 121/60/4 122/61/4 119/62/3 
f 121/59/4 123/60/5 124/61/5 122/62/4 
f 123/55/5 117/56/2 120/57/27 124/58/5 
f 125/55/27 126/56/29 127/57/3 128/58/27 
f 126/59/29 129/60/28 130/61/28 127/62/3 
f 129/59/28 131/60/30 132/61/5 130/62/28 
f 131/55/30 125/56/27 128/57/27 132/58/5 
f 133/55/2 134/56/3 135/57/3 136/58/2 
f 134/59/3 137/60/4 138/61/4 135/62/3 
f 137/59/4 139/60/5 140/61/30 138/62/4 
f 139/55/5 133/56/2 136/57/2 140/58/30 
f 141/55/2 142/56/3 143/57/3 144/58/2 
f 142/59/3 145/60/28 146/61/28 143/62/3 
f 145/59/28 147/60/30 148/61/30 146/62/28 
f 147/55/30 141/56/2 144/57/2 148/58/30 
f 149/55/27 150/56/3 151/57/3 152/58/27 
f 150/59/3 153/60/28 154/61/28 151/62/3 
f 153/59/28 155/60/5 156/61/5 154/62/28 
f 155/55/5 149/56/27 152/57/27 156/58/5 
f 157/55/2 158/56/29 159/57/29 160/58/27 
f 158/59/29 161/60/4 162/61/4 159/62/29 
f 161/59/4 163/60/30 164/61/30 162/62/4 
f 163/55/30 157/56/2 160/57/27 164/58/30 
f 165/55/2 166/56/31 167/57/32 168/58/2 
f 166/59/31 169/60/33 170/61/4 167/62/32 
f 169/59/33 171/60/1 172/61/1 170/62/4 
f 171/55/1 165/56/2 168/57/2 172/58/1 
f 173/55/2 174/56/32 175/57/34 176/58/2 
f 174/59/32 177/60/33 178/61/28 175/62/34 
f 177/59/33 179/60/1 180/61/1 178/62/28 
f 179/55/1 173/56/2 176/57/2 180/58/1 
f 181/55/2 182/56/35 183/57/32 184/58/2 
f 182/59/35 185/60/4 186/61/4 183/62/32 
f 185/59/4 187/60/1 188/61/1 186/62/4 
f 187/55/1 181/56/2 184/57/2 188/58/1 
f 189/55/2 190/56/31 191/57/31 192/58/36 
f 190/59/31 193/60/33 194/61/4 191/62/31 
f 193/59/33 195/60/1 196/61/37 194/62/4 
f 195/55/1 189/56/2 192/57/36 196/58/37 
# 121 polygons

