# 3ds Max Wavefront OBJ Exporter v0.94b - (c)2007 guruware
# File Created: 29.09.2009 02:30:17

#
# object Cylinder01
#

v  0.1225 0.0000 0.0707
v  0.1225 0.7484 0.0707
v  -0.0000 0.7484 0.1414
v  -0.0000 0.0000 0.1414
v  0.1225 0.0000 -0.0707
v  0.1225 0.7484 -0.0707
v  -0.0000 0.0000 -0.1414
v  -0.0000 0.7484 -0.1414
v  -0.1225 0.0000 -0.0707
v  -0.1225 0.7484 -0.0707
v  -0.1225 0.0000 0.0707
v  -0.1225 0.7484 0.0707
v  0.0482 2.3246 0.0278
v  0.0482 2.3246 -0.0278
v  -0.0000 2.3246 -0.0556
v  -0.0000 2.3246 0.0556
v  -0.0000 2.2740 0.1414
v  0.1225 2.2740 0.0707
v  0.1225 2.2740 -0.0707
v  -0.0000 2.2740 -0.1414
v  -0.0482 2.3246 -0.0278
v  -0.1225 2.2740 -0.0707
v  -0.0482 2.3246 0.0278
v  -0.1225 2.2740 0.0707
v  0.1225 1.2028 0.0707
v  -0.0000 1.2028 0.1414
v  -0.0000 0.8912 0.1414
v  0.1225 0.8912 0.0707
v  0.1225 1.2028 -0.0707
v  0.1225 0.8912 -0.0707
v  -0.0000 1.2028 -0.1414
v  -0.0000 0.8912 -0.1414
v  -0.1225 1.2028 -0.0707
v  -0.1225 0.8912 -0.0707
v  -0.1225 1.2028 0.0707
v  -0.1225 0.8912 0.0707
v  0.1225 1.3426 0.0707
v  -0.0000 1.3426 0.1414
v  0.2908 1.7393 -0.0633
v  0.2908 1.7393 0.0229
v  0.3689 1.7395 0.0229
v  0.3689 1.7395 -0.0633
v  -0.0000 1.3426 -0.1414
v  0.1225 1.3426 -0.0707
v  -0.1225 1.3426 -0.0707
v  -0.1993 1.9548 0.0452
v  -0.1993 1.9548 -0.0452
v  -0.2850 1.9548 -0.0452
v  -0.2850 1.9548 0.0452
v  -0.1225 1.3426 0.0707
v  0.1634 2.1419 0.1839
v  0.0776 2.1419 0.2334
v  0.1253 2.1419 0.3162
v  0.2111 2.1419 0.2666
v  0.1225 1.4770 -0.0707
v  0.1225 1.4770 0.0707
v  -0.0000 1.4770 -0.1414
v  -0.1225 1.4770 -0.0707
v  -0.1225 1.4770 0.0707
v  -0.0000 1.4770 0.1414
v  -0.1618 1.2028 -0.0479
v  -0.1372 1.3426 -0.0707
v  -0.1618 1.2028 0.0479
v  -0.1372 1.3426 0.0707
v  -0.3248 1.2795 -0.0904
v  -0.1567 1.3628 -0.0904
v  -0.3248 1.2795 0.0904
v  -0.1567 1.3628 0.0904
v  -0.3280 1.9005 -0.0904
v  -0.1566 1.9004 -0.0904
v  -0.3280 1.9005 0.0904
v  -0.1566 1.9004 0.0904
v  0.2811 1.2047 0.0376
v  0.2349 1.3299 0.0376
v  0.2811 1.2047 -0.0781
v  0.2349 1.3299 -0.0781
v  0.3999 1.2543 0.0660
v  0.2473 1.3474 0.0660
v  0.3999 1.2543 -0.1064
v  0.2473 1.3474 -0.1064
v  0.4080 1.7002 0.0660
v  0.2518 1.6999 0.0660
v  0.4080 1.7002 -0.1064
v  0.2518 1.6999 -0.1064
v  0.0697 1.5262 -0.2199
v  0.1555 1.5262 -0.1703
v  0.2055 1.5262 -0.2568
v  0.1196 1.5262 -0.3063
v  -0.0610 1.1466 0.1892
v  -0.1334 1.1466 0.1474
v  -0.1754 1.1466 0.2203
v  -0.1031 1.1466 0.2621
v  0.1422 0.8912 -0.1048
v  0.0197 0.8912 -0.1755
v  0.1606 0.7484 -0.1368
v  0.0381 0.7484 -0.2075
v  0.1735 0.9147 -0.1023
v  0.0019 0.9147 -0.2014
v  0.2733 0.9147 -0.2752
v  0.1017 0.9147 -0.3743
v  0.1735 1.4869 -0.1023
v  0.0019 1.4869 -0.2014
v  0.2733 1.4869 -0.2752
v  0.1017 1.4869 -0.3743
v  0.1365 1.4684 0.1129
v  0.1937 1.3511 0.2121
v  0.0295 1.4684 0.1746
v  0.0868 1.3511 0.2738
v  0.1824 1.5039 0.1177
v  0.2779 1.5039 0.2832
v  0.0108 1.5039 0.2168
v  0.1063 1.5039 0.3823
v  0.1824 2.1026 0.1177
v  0.2779 2.1026 0.2832
v  0.0108 2.1026 0.2168
v  0.1063 2.1026 0.3823
v  -0.0331 0.8756 0.1678
v  -0.0649 0.7855 0.2229
v  -0.1287 0.8756 0.1126
v  -0.1606 0.7855 0.1677
v  -0.0879 0.9125 0.3194
v  -0.0037 0.9125 0.1737
v  -0.1485 0.9125 0.0901
v  -0.2327 0.9125 0.2358
v  -0.0037 1.1072 0.1737
v  -0.0879 1.1072 0.3194
v  -0.1485 1.1072 0.0901
v  -0.2327 1.1072 0.2358
# 128 vertices

vn 0.8660 0.0000 0.5000
vn 0.2612 -0.2247 0.9388
vn -0.0000 -0.0000 1.0000
vn 0.8660 0.0000 -0.5000
vn 0.9534 -0.2832 -0.1037
vn -0.0000 0.0000 -1.0000
vn -0.3869 -0.2832 -0.8775
vn -0.8660 -0.0000 -0.5000
vn -0.8660 -0.0000 0.5000
vn -0.9420 -0.2386 0.2360
vn 0.2951 0.9402 0.1704
vn 0.2951 0.9402 -0.1704
vn 0.0000 0.9402 -0.3407
vn 0.0000 0.9402 0.3407
vn -0.0000 0.4380 0.8990
vn 0.7785 0.4380 0.4495
vn 0.7785 0.4380 -0.4495
vn -0.0000 0.4380 -0.8990
vn -0.2951 0.9402 -0.1704
vn -0.7785 0.4380 -0.4495
vn -0.2951 0.9402 0.1704
vn -0.7785 0.4380 0.4495
vn 0.6147 -0.2414 0.7509
vn -0.0000 0.0000 1.0000
vn 0.2314 0.1991 0.9523
vn 0.5576 -0.2958 -0.7756
vn 0.9534 0.2832 -0.1037
vn -0.0000 -0.0000 -1.0000
vn -0.3869 0.2832 -0.8775
vn -0.6821 -0.1816 -0.7083
vn -0.6739 -0.1951 0.7125
vn -0.9395 0.2269 0.2567
vn 0.8879 -0.0223 0.4595
vn -0.3606 -0.2708 0.8925
vn -0.3062 0.9099 -0.2800
vn -0.3062 0.9099 0.2800
vn 0.3027 0.9110 0.2800
vn 0.3027 0.9110 -0.2800
vn 0.5848 0.2942 -0.7560
vn -0.5924 0.2444 -0.7677
vn 0.3489 0.8753 0.3350
vn 0.3489 0.8753 -0.3350
vn -0.3463 0.8762 -0.3351
vn -0.3463 0.8762 0.3351
vn -0.5665 0.2832 0.7739
vn 0.0888 0.9304 -0.3557
vn -0.3524 0.9304 -0.1010
vn -0.0888 0.9304 0.3557
vn 0.3524 0.9304 0.1010
vn 0.9496 0.2380 0.2039
vn -0.3117 0.2600 0.9139
vn -0.2468 -0.8279 -0.5037
vn 0.4392 0.4230 -0.7926
vn -0.2441 -0.8409 0.4831
vn 0.5221 0.5074 0.6855
vn -0.6246 -0.4601 -0.6310
vn 0.6155 -0.0675 -0.7852
vn -0.6331 -0.4563 0.6253
vn 0.6088 0.0425 0.7922
vn -0.6605 0.3551 -0.6616
vn 0.6595 0.3558 -0.6622
vn -0.6605 0.3551 0.6616
vn 0.6595 0.3558 0.6622
vn 0.1570 -0.7814 0.6040
vn -0.4123 0.5337 0.7383
vn 0.0633 -0.7989 -0.5981
vn -0.6734 0.4517 -0.5852
vn 0.6030 -0.4802 0.6370
vn -0.6596 -0.1680 0.7326
vn 0.6218 -0.4735 -0.6239
vn -0.6606 -0.0178 -0.7505
vn 0.6504 0.3931 0.6499
vn -0.6436 0.4014 0.6517
vn 0.6504 0.3931 -0.6499
vn -0.6436 0.4014 -0.6517
vn -0.3487 0.9327 0.0921
vn 0.0946 0.9327 0.3480
vn 0.3487 0.9327 -0.0921
vn -0.0946 0.9327 -0.3480
vn 0.3935 0.9134 -0.1042
vn -0.1065 0.9134 -0.3929
vn -0.3935 0.9134 0.1042
vn 0.1065 0.9134 0.3929
vn 0.1341 0.4380 0.8889
vn -0.8369 0.4380 0.3283
vn 0.6446 -0.7602 0.0808
vn -0.3923 -0.7602 -0.5178
vn 0.3395 -0.0083 0.9406
vn -0.9843 -0.0083 0.1763
vn 0.9004 -0.3240 -0.2903
vn -0.1988 -0.3240 -0.9249
vn 0.2340 0.4260 0.8740
vn -0.8738 0.4260 0.2344
vn 0.8738 0.4260 -0.2344
vn -0.2340 0.4260 -0.8740
vn 0.4782 0.4964 -0.7245
vn 0.6557 -0.7537 0.0438
vn -0.8008 0.5932 0.0822
vn -0.2848 -0.7534 0.5926
vn 0.3613 -0.0521 -0.9310
vn 0.9234 -0.2618 0.2808
vn -0.9869 -0.0521 -0.1526
vn -0.2185 -0.2618 0.9401
vn 0.2356 0.4230 -0.8750
vn 0.8755 0.4230 0.2335
vn -0.8755 0.4230 -0.2335
vn -0.2356 0.4230 0.8750
vn 0.9433 0.0566 0.3272
vn 0.2927 -0.6435 0.7073
vn -0.7869 0.2187 -0.5771
vn -0.7555 -0.6440 0.1202
vn 0.2278 -0.2896 0.9296
vn 0.9350 -0.2821 -0.2151
vn -0.2812 -0.2821 -0.9172
vn -0.9190 -0.2896 0.2676
vn 0.8847 0.4012 -0.2373
vn 0.2369 0.4012 0.8848
vn -0.2369 0.4012 -0.8848
vn -0.8847 0.4012 0.2373
vn 0.0000 -1.0000 -0.0000
# 120 vertex normals

vt 0.0060 0.8565 0.8101
vt 3.8040 0.8565 0.8101
vt 3.8040 0.1435 0.8101
vt 0.0060 0.1435 0.8101
vt 0.0060 0.9841 0.9187
vt 3.8040 0.9841 0.9187
vt 3.8040 0.0375 0.9187
vt 0.0060 0.0375 0.9187
vt 0.0060 0.1431 0.6364
vt 3.8040 0.1431 0.6364
vt 3.8040 0.9890 0.6187
vt 0.0060 0.9890 0.6187
vt 0.0060 0.1435 1.5677
vt 3.8040 0.1435 1.5677
vt 3.8040 0.8565 1.5677
vt 0.0060 0.8565 1.5677
vt 0.0060 0.0375 -0.3245
vt 3.8040 0.0375 -0.3245
vt 3.8040 0.9841 -0.3245
vt 0.0060 0.9841 -0.3245
vt 0.0060 0.8608 0.2672
vt 3.8040 0.8608 0.2672
vt 3.8040 0.0149 0.2850
vt 0.0060 0.0149 0.2850
vt 1.6465 1.5885 0.9995
vt 1.3061 1.5885 0.9995
vt 1.1358 1.3078 0.9995
vt 1.8167 1.3078 0.9995
vt 11.9940 0.6782 0.9995
vt 11.9940 0.3218 0.9995
vt 11.5464 0.1435 0.8101
vt 11.5464 0.8565 0.8101
vt 11.9940 0.7475 0.6079
vt 11.9940 0.2741 0.6079
vt 11.5464 0.0375 0.9187
vt 11.5464 0.9841 0.9187
vt 11.9940 0.3226 0.5441
vt 11.9940 0.7455 0.5352
vt 11.5464 0.9890 0.6187
vt 11.5464 0.1431 0.6364
vt 11.9940 0.3218 1.3783
vt 11.9940 0.6782 1.3783
vt 11.5464 0.8565 1.5677
vt 11.5464 0.1435 1.5677
vt 11.9940 0.2741 -0.0137
vt 11.9940 0.7475 -0.0137
vt 11.5464 0.9841 -0.3245
vt 11.5464 0.0375 -0.3245
vt 11.9940 0.6814 0.3595
vt 11.9940 0.2585 0.3684
vt 11.5464 0.0149 0.2850
vt 11.5464 0.8608 0.2672
vt 6.1103 0.8565 0.8101
vt 6.1103 0.1435 0.8101
vt 4.5290 0.1435 0.8101
vt 4.5290 0.8565 0.8101
vt 6.1103 0.9841 0.9187
vt 6.1103 0.0375 0.9187
vt 4.5290 0.0375 0.9187
vt 4.5290 0.9841 0.9187
vt 6.1103 -0.1489 0.6442
vt 6.1103 1.0047 0.6442
vt 4.5290 1.0047 0.6442
vt 4.5290 -0.1489 0.6442
vt 6.1103 0.1435 1.5677
vt 6.1103 0.8565 1.5677
vt 4.5290 0.8565 1.5677
vt 4.5290 0.1435 1.5677
vt 6.1103 0.0375 -0.3245
vt 6.1103 0.9841 -0.3245
vt 4.5290 0.9841 -0.3245
vt 4.5290 0.0375 -0.3245
vt 6.1103 0.8608 0.2672
vt 6.1103 0.0149 0.2850
vt 4.5290 0.0149 0.2850
vt 4.5290 0.8608 0.2672
vt 6.8195 0.8565 0.8101
vt 6.8195 0.1435 0.8101
vt 1.1713 2.6405 0.2552
vt 1.5864 2.6405 0.2552
vt 1.5864 2.9985 0.2553
vt 1.1713 2.9985 0.2553
vt 6.8195 0.1431 0.6364
vt 6.8195 0.9890 0.6187
vt 6.1103 0.9890 0.6187
vt 6.1103 0.1431 0.6364
vt 6.8195 0.1435 1.5677
vt 6.8195 0.8565 1.5677
vt 1.6939 0.3943 0.5126
vt 1.2587 0.3943 0.5126
vt 1.2587 0.0015 0.5127
vt 1.6939 0.0015 0.5127
vt 6.8195 0.8608 0.2672
vt 6.8195 0.0149 0.2850
vt 2.3615 2.0566 0.7363
vt 2.6001 1.6633 0.7363
vt 2.9985 1.8823 0.7363
vt 2.7600 2.2756 0.7363
vt 7.5014 0.9841 0.9187
vt 7.5014 0.0375 0.9187
vt 6.8195 0.0375 0.9187
vt 6.8195 0.9841 0.9187
vt 7.5014 0.1431 0.6364
vt 7.5014 0.9890 0.6187
vt 7.5014 0.1435 1.5677
vt 7.5014 0.8565 1.5677
vt 7.5014 1.7977 -0.0768
vt 7.5014 0.6442 -0.0768
vt 6.8195 0.6442 -0.0768
vt 6.8195 1.7977 -0.0768
vt 7.5014 0.8608 0.2672
vt 7.5014 0.0149 0.2850
vt 6.8195 0.0005 0.3335
vt 6.1103 0.0005 0.3335
vt 6.1103 -0.3206 0.1187
vt 6.8195 -0.1200 0.3335
vt 0.8530 1.3969 0.6236
vt 1.7337 1.3969 0.6236
vt 1.5916 1.1256 0.6236
vt 0.9950 1.1256 0.6236
vt 6.1103 0.0005 -0.9985
vt 6.8195 0.0005 -0.9985
vt 6.8195 -0.1200 -0.9985
vt 6.1103 -0.3206 -0.7837
vt 1.7337 1.3969 0.8153
vt 0.8530 1.3969 0.8153
vt 0.8530 1.2951 0.8153
vt 1.7337 1.2951 0.8153
vt 6.4994 -1.6497 0.5189
vt 6.9223 -0.2787 0.5189
vt 1.8562 0.0025 0.7288
vt 0.7305 0.0025 0.7288
vt 6.9223 -0.2787 -1.1839
vt 6.4994 -1.6497 -1.1839
vt 0.7305 1.1610 0.8430
vt 1.8562 1.1610 0.8430
vt 9.6508 -1.6763 0.5189
vt 9.6503 -0.2781 0.5189
vt 6.4994 1.1159 -1.3513
vt 6.4994 -0.0943 -1.3513
vt 9.6508 -0.0943 -1.3678
vt 9.6508 1.1159 -1.3678
vt 9.6503 -0.2781 -1.1839
vt 9.6508 -1.6763 -1.1839
vt 6.9223 1.9583 -0.3991
vt 6.9223 0.4836 -0.3991
vt 9.6503 0.4836 -0.3985
vt 9.6503 1.9583 -0.3985
vt 9.9267 -1.3252 0.0932
vt 9.9264 -0.6261 0.0932
vt 9.9267 0.2083 -1.1494
vt 9.9267 0.8133 -1.1494
vt 9.9264 -0.6261 -0.7582
vt 9.9267 -1.3252 -0.7582
vt 9.9264 0.8523 -0.8004
vt 9.9264 1.5896 -0.8004
vt 6.8195 1.9985 -0.9985
vt 6.1103 1.9985 -0.9985
vt 6.1199 3.2928 -0.6867
vt 6.7549 2.9154 -0.6867
vt 1.7337 3.0853 0.6236
vt 0.8530 3.0853 0.6236
vt 0.8072 4.1789 0.6262
vt 1.5275 4.1789 0.6262
vt 6.1103 1.9985 0.3335
vt 6.8195 1.9985 0.3335
vt 6.7549 2.9154 0.4028
vt 6.1199 3.2928 0.4028
vt 0.8530 3.0853 0.8153
vt 1.7337 3.0853 0.8153
vt 1.5275 3.8601 0.7978
vt 0.8072 3.8601 0.7978
vt 6.3716 4.2615 -0.9540
vt 6.8438 3.0164 -0.9540
vt 0.6305 4.9975 0.6942
vt 1.7042 4.9975 0.6942
vt 6.8438 3.0164 0.6700
vt 6.3716 4.2615 0.6700
vt 6.7549 0.5842 3.2891
vt 6.7549 1.5277 3.2891
vt 6.8438 1.7592 3.4056
vt 6.8438 0.3527 3.4056
vt 8.6344 4.3274 -0.9540
vt 8.6329 3.0531 -0.9540
vt 6.3716 0.0691 2.3268
vt 6.3716 1.2233 2.3268
vt 8.6344 1.2233 2.3678
vt 8.6344 0.0691 2.3678
vt 8.6329 3.0531 0.6700
vt 8.6344 4.3274 0.6700
vt 8.6329 1.7592 3.4481
vt 8.6329 0.3527 3.4481
vt 8.8338 4.0083 -0.5480
vt 8.8330 3.3711 -0.5480
vt 8.8338 0.9348 2.1692
vt 8.8338 0.3577 2.1692
vt 8.8330 3.3711 0.2640
vt 8.8338 4.0083 0.2640
vt 8.8330 1.4076 3.8153
vt 8.8330 0.7044 3.8153
vt 0.4176 1.6275 0.0005
vt 0.6562 2.0208 0.0005
vt 0.2400 2.2495 0.0005
vt 0.0015 1.8562 0.0005
vt 2.4715 1.8208 0.5465
vt 2.2113 1.3219 0.5465
vt 2.6651 1.0319 0.5465
vt 2.9253 1.5308 0.5465
vt 0.4127 2.2411 0.1964
vt 0.8530 3.0853 0.1964
vt 0.6407 3.2209 0.1964
vt 0.2004 2.3768 0.1964
vt 4.5290 1.2414 -1.0129
vt 3.8040 1.2414 -1.0129
vt 3.8040 1.8610 -0.9503
vt 4.5290 1.5613 -0.9806
vt 0.8530 3.0853 0.0005
vt 0.4127 2.2411 0.0005
vt 0.0015 2.5039 0.0005
vt 0.4418 3.3481 0.0005
vt 3.8040 1.1409 0.3140
vt 4.5290 1.1409 0.3140
vt 4.5290 1.4608 0.3464
vt 3.8040 1.7605 0.3766
vt 4.5290 -0.1489 1.0150
vt 4.5290 1.0047 1.0150
vt 4.6478 1.2361 1.1426
vt 4.6478 -0.3803 1.1426
vt 4.6478 1.6915 -1.2357
vt 4.6478 3.3135 -1.0718
vt 3.8040 1.0289 0.7280
vt 3.8040 0.1830 0.7458
vt 4.6478 0.1056 1.0022
vt 4.6478 1.2909 0.9774
vt 4.6478 1.5506 0.6237
vt 4.6478 3.1726 0.7875
vt 7.5517 1.2361 1.1426
vt 7.5517 -0.3803 1.1426
vt 7.5517 3.3135 -1.0718
vt 7.5517 1.6915 -1.2357
vt 7.5517 0.1056 1.0022
vt 7.5517 1.2909 0.9774
vt 7.5517 1.5506 0.6237
vt 7.5517 3.1726 0.7875
vt 7.7515 0.8320 1.6126
vt 7.7515 0.0238 1.6126
vt 7.7515 2.8728 -0.6479
vt 7.7515 2.0618 -0.7299
vt 7.7515 0.3758 0.9244
vt 7.7515 0.9684 0.9120
vt 7.7515 1.9914 0.1998
vt 7.7515 2.8023 0.2817
vt 7.5014 0.1435 0.8101
vt 7.5014 0.8565 0.8101
vt 7.5014 0.9841 -0.3245
vt 7.5014 0.0375 -0.3245
vt 6.8195 1.2414 2.0129
vt 7.5014 1.2414 2.0129
vt 7.4582 1.5887 1.8931
vt 6.8627 2.5195 1.7991
vt 1.7337 3.0853 0.9995
vt 2.1740 2.2411 0.9995
vt 2.3808 2.4446 0.9878
vt 1.9963 3.1818 0.9878
vt 7.5014 1.1408 0.6860
vt 6.8195 1.1409 0.6860
vt 6.8627 2.4317 0.6403
vt 7.4582 1.5009 0.7343
vt 2.1740 2.2411 0.8153
vt 2.6140 3.5765 0.8269
vt 2.9985 2.8394 0.8269
vt 7.6380 1.8358 2.2211
vt 7.6380 3.3887 2.0642
vt 7.4582 0.8708 -0.1025
vt 7.4582 0.3691 -0.1532
vt 7.6380 0.2270 -0.2959
vt 7.6380 1.0322 -0.2145
vt 7.6380 1.6949 0.3617
vt 7.6380 3.2478 0.2049
vt 6.8627 0.1887 0.3212
vt 6.8627 0.8113 0.3212
vt 7.6380 0.9995 0.0005
vt 7.6380 0.0005 0.0005
vt 10.6764 1.8358 2.2211
vt 10.6764 3.3887 2.0642
vt 10.6764 0.2270 -0.2959
vt 10.6764 1.0322 -0.2145
vt 10.6764 3.2478 0.2049
vt 10.6764 1.6949 0.3617
vt 10.6764 0.9995 0.0005
vt 10.6764 0.0005 0.0005
vt 10.8762 2.1888 1.7170
vt 10.8762 2.9653 1.6386
vt 10.8762 0.4453 -0.4997
vt 10.8762 0.8479 -0.4590
vt 10.8762 2.8948 0.7089
vt 10.8762 2.1184 0.7874
vt 10.8762 0.7498 0.1483
vt 10.8762 0.2502 0.1483
vt 3.8040 -0.7490 -1.2140
vt 4.5290 -0.7490 -1.2140
vt 4.4496 -1.0799 -1.1009
vt 3.9924 -1.5975 -1.1532
vt 2.1740 2.2411 0.1964
vt 1.7337 1.3969 0.1964
vt 1.9942 1.3537 0.1749
vt 2.3380 2.0129 0.1749
vt 4.5290 -0.8495 0.1130
vt 3.8040 -0.8495 0.1130
vt 3.9924 -1.6760 -0.1170
vt 4.4496 -1.1584 -0.0647
vt 1.7337 1.3969 0.0005
vt 2.1740 2.2411 0.0005
vt 2.6815 1.7934 0.0514
vt 2.3377 1.1342 0.0514
vt 4.6370 -2.3496 -1.4974
vt 4.6370 -0.9819 -1.3593
vt 4.4496 0.8783 -2.0337
vt 4.4496 -0.0225 -2.0337
vt 4.6370 -0.2539 -1.9435
vt 4.6370 1.1097 -1.9435
vt 4.6370 -2.4684 0.0712
vt 4.6370 -1.1008 0.2093
vt 3.9924 0.0537 0.1352
vt 3.9924 0.7142 0.1213
vt 4.6370 0.8342 -0.0186
vt 4.6370 -0.1658 0.0024
vt 5.6251 -0.9819 -1.3593
vt 5.6251 -2.3496 -1.4974
vt 5.6251 -0.2539 -1.9435
vt 5.6251 1.1097 -1.9435
vt 5.6251 -2.4684 0.0712
vt 5.6251 -1.1008 0.2093
vt 5.6251 0.8342 -0.0186
vt 5.6251 -0.1658 0.0024
vt 5.8249 -1.3536 -1.0017
vt 5.8249 -2.0374 -1.0707
vt 5.8249 0.0870 -2.3398
vt 5.8249 0.7688 -2.3398
vt 5.8249 -2.0968 -0.2864
vt 5.8249 -1.4130 -0.2173
vt 5.8249 0.6062 0.0471
vt 5.8249 0.1062 0.0575
vt 1.3061 1.0271 0.9995
vt 1.6465 1.0271 0.9995
# 345 texture coords

g trunk
s 1
f 1/1/1 2/2/1 3/3/2 4/4/3 
f 5/5/4 6/6/5 2/7/1 1/8/1 
f 7/9/6 8/10/7 6/11/5 5/12/4 
f 9/13/8 10/14/8 8/15/7 7/16/6 
f 11/17/9 12/18/10 10/19/8 9/20/8 
f 4/21/3 3/22/2 12/23/10 11/24/9 
f 13/25/11 14/26/12 15/27/13 16/28/14 
f 13/29/11 16/30/14 17/31/15 18/32/16 
f 14/33/12 13/34/11 18/35/16 19/36/17 
f 15/37/13 14/38/12 19/39/17 20/40/18 
f 21/41/19 15/42/13 20/43/18 22/44/20 
f 23/45/21 21/46/19 22/47/20 24/48/22 
f 16/49/14 23/50/21 24/51/22 17/52/15 
f 25/53/23 26/54/24 27/55/25 28/56/1 
f 29/57/26 25/58/23 28/59/1 30/60/27 
f 31/61/28 29/62/26 30/63/27 32/64/29 
f 33/65/30 31/66/28 32/67/29 34/68/8 
f 35/69/31 33/70/30 34/71/8 36/72/32 
f 26/73/24 35/74/31 36/75/32 27/76/25 
f 37/77/33 38/78/34 26/54/24 25/53/23 
f 39/79/35 40/80/36 41/81/37 42/82/38 
f 43/83/28 44/84/39 29/85/26 31/86/28 
f 45/87/40 43/88/28 31/66/28 33/65/30 
f 46/89/41 47/90/42 48/91/43 49/92/44 
f 38/93/34 50/94/45 35/74/31 26/73/24 
f 51/95/46 52/96/47 53/97/48 54/98/49 
f 55/99/4 56/100/50 37/101/33 44/102/39 
f 57/103/6 55/104/4 44/84/39 43/83/28 
f 58/105/8 57/106/6 43/88/28 45/87/40 
f 59/107/9 58/108/8 45/109/40 50/110/45 
f 60/111/51 59/112/9 50/94/45 38/93/34 
f 45/113/40 33/114/30 61/115/52 62/116/53 
f 33/117/30 35/118/31 63/119/54 61/120/52 
f 35/121/31 50/122/45 64/123/55 63/124/54 
f 50/125/45 45/126/40 62/127/53 64/128/55 
f 62/116/53 61/115/52 65/129/56 66/130/57 
f 61/120/52 63/119/54 67/131/58 65/132/56 
f 63/124/54 64/123/55 68/133/59 67/134/58 
f 64/128/55 62/127/53 66/135/57 68/136/59 
f 66/130/57 65/129/56 69/137/60 70/138/61 
f 65/139/56 67/140/58 71/141/62 69/142/60 
f 67/134/58 68/133/59 72/143/63 71/144/62 
f 68/145/59 66/146/57 70/147/61 72/148/63 
f 70/138/61 69/137/60 48/149/43 47/150/42 
f 69/142/60 71/141/62 49/151/44 48/152/43 
f 71/144/62 72/143/63 46/153/41 49/154/44 
f 72/148/63 70/147/61 47/155/42 46/156/41 
f 37/157/33 25/158/23 73/159/64 74/160/65 
f 25/161/23 29/162/26 75/163/66 73/164/64 
f 29/165/26 44/166/39 76/167/67 75/168/66 
f 44/169/39 37/170/33 74/171/65 76/172/67 
f 74/160/65 73/159/64 77/173/68 78/174/69 
f 73/164/64 75/163/66 79/175/70 77/176/68 
f 75/168/66 76/167/67 80/177/71 79/178/70 
f 76/179/67 74/180/65 78/181/69 80/182/71 
f 78/174/69 77/173/68 81/183/72 82/184/73 
f 77/185/68 79/186/70 83/187/74 81/188/72 
f 84/189/75 83/190/74 79/178/70 80/177/71 
f 80/182/71 78/181/69 82/191/73 84/192/75 
f 82/184/73 81/183/72 41/193/37 40/194/36 
f 81/188/72 83/187/74 42/195/38 41/196/37 
f 83/190/74 84/189/75 39/197/35 42/198/38 
f 84/192/75 82/191/73 40/199/36 39/200/35 
f 28/56/1 27/55/25 3/3/2 2/2/1 
f 30/60/27 28/59/1 2/7/1 6/6/5 
f 85/201/76 86/202/77 87/203/78 88/204/79 
f 34/68/8 32/67/29 8/15/7 10/14/8 
f 36/72/32 34/71/8 10/19/8 12/18/10 
f 89/205/80 90/206/81 91/207/82 92/208/83 
f 32/209/29 30/210/27 93/211/84 94/212/85 
f 30/213/27 6/214/5 95/215/86 93/216/84 
f 6/217/5 8/218/7 96/219/87 95/220/86 
f 8/221/7 32/222/29 94/223/85 96/224/87 
f 94/225/85 93/226/84 97/227/88 98/228/89 
f 97/229/88 93/216/84 95/215/86 99/230/90 
f 95/231/86 96/232/87 100/233/91 99/234/90 
f 96/224/87 94/223/85 98/235/89 100/236/91 
f 98/228/89 97/227/88 101/237/92 102/238/93 
f 97/229/88 99/230/90 103/239/94 101/240/92 
f 99/234/90 100/233/91 104/241/95 103/242/94 
f 100/236/91 98/235/89 102/243/93 104/244/95 
f 102/238/93 101/237/92 86/245/77 85/246/76 
f 101/240/92 103/239/94 87/247/78 86/248/77 
f 103/242/94 104/241/95 88/249/79 87/250/78 
f 104/244/95 102/243/93 85/251/76 88/252/79 
f 18/32/16 17/31/15 60/253/51 56/254/50 
f 19/36/17 18/35/16 56/100/50 55/99/4 
f 20/40/18 19/39/17 55/104/4 57/103/6 
f 22/44/20 20/43/18 57/106/6 58/105/8 
f 24/48/22 22/47/20 58/255/8 59/256/9 
f 17/52/15 24/51/22 59/112/9 60/111/51 
f 37/257/33 56/258/50 105/259/96 106/260/97 
f 56/261/50 60/262/51 107/263/98 105/264/96 
f 60/265/51 38/266/34 108/267/99 107/268/98 
f 38/269/34 37/170/33 106/270/97 108/271/99 
f 106/260/97 105/259/96 109/272/100 110/273/101 
f 105/274/96 107/275/98 111/276/102 109/277/100 
f 111/278/102 107/268/98 108/267/99 112/279/103 
f 108/280/99 106/281/97 110/282/101 112/283/103 
f 110/273/101 109/272/100 113/284/104 114/285/105 
f 109/277/100 111/276/102 115/286/106 113/287/104 
f 111/278/102 112/279/103 116/288/107 115/289/106 
f 112/283/103 110/282/101 114/290/105 116/291/107 
f 114/285/105 113/284/104 51/292/46 54/293/49 
f 113/287/104 115/286/106 52/294/47 51/295/46 
f 115/289/106 116/288/107 53/296/48 52/297/47 
f 116/291/107 114/290/105 54/298/49 53/299/48 
f 3/300/2 27/301/25 117/302/108 118/303/109 
f 27/304/25 36/305/32 119/306/110 117/307/108 
f 36/308/32 12/309/10 120/310/111 119/311/110 
f 12/312/10 3/313/2 118/314/109 120/315/111 
f 121/316/112 118/303/109 117/302/108 122/317/113 
f 117/318/108 119/319/110 123/320/114 122/321/113 
f 124/322/115 123/323/114 119/311/110 120/310/111 
f 120/324/111 118/325/109 121/326/112 124/327/115 
f 121/316/112 122/317/113 125/328/116 126/329/117 
f 122/321/113 123/320/114 127/330/118 125/331/116 
f 123/323/114 124/322/115 128/332/119 127/333/118 
f 124/327/115 121/326/112 126/334/117 128/335/119 
f 126/329/117 125/328/116 89/336/80 92/337/83 
f 125/331/116 127/330/118 90/338/81 89/339/80 
f 127/333/118 128/332/119 91/340/82 90/341/81 
f 128/335/119 126/334/117 92/342/83 91/343/82 
f 21/344/19 23/345/21 16/28/14 15/27/13 
s off
f 5/12/120 1/8/120 4/4/120 11/24/120 
f 9/20/120 7/16/120 5/12/120 11/24/120 
# 126 polygons

