# 3ds Max Wavefront OBJ Exporter v0.94b - (c)2007 guruware
# File Created: 06.10.2009 13:22:56

#
# object trunk
#

v  0.1142 0.0000 0.0000
v  0.0571 0.0000 -0.0989
v  0.0338 0.4953 -0.1141
v  0.0835 0.4834 -0.0279
v  -0.0571 0.0000 -0.0989
v  -0.0659 0.5032 -0.1138
v  -0.1142 0.0000 0.0000
v  -0.1160 0.4993 -0.0274
v  -0.0571 0.0000 0.0989
v  -0.0663 0.4874 0.0588
v  0.0571 0.0000 0.0989
v  0.0334 0.4794 0.0586
v  0.0652 0.9847 -0.0574
v  0.1070 0.9644 0.0156
v  -0.0198 0.9983 -0.0566
v  -0.0630 0.9915 0.0172
v  -0.0212 0.9712 0.0902
v  0.0638 0.9576 0.0894
v  0.1346 1.4635 0.0358
v  0.1683 1.4383 0.0953
v  0.0646 1.4803 0.0373
v  0.0282 1.4720 0.0984
v  0.0619 1.4468 0.1579
v  0.1320 1.4299 0.1564
v  0.2280 1.9260 0.1904
v  0.2505 1.9028 0.2307
v  0.1797 1.9415 0.1922
v  0.1540 1.9338 0.2345
v  0.1765 1.9106 0.2749
v  0.2247 1.8951 0.2730
# 30 vertices

vn 0.9966 0.0796 0.0220
vn 0.5187 -0.0016 -0.8550
vn 0.4728 0.0391 -0.8803
vn 0.9996 0.0101 -0.0279
vn -0.4992 -0.0428 -0.8654
vn -0.5020 0.0692 -0.8621
vn -0.9998 -0.0026 0.0218
vn -0.9977 0.0631 -0.0251
vn -0.4789 0.0790 0.8743
vn -0.5260 0.0324 0.8499
vn 0.4964 0.1193 0.8599
vn 0.4962 0.0094 0.8682
vn 0.4910 0.1026 -0.8651
vn 0.9942 -0.1053 -0.0213
vn -0.4856 0.2402 -0.8406
vn -0.9838 0.1794 0.0030
vn -0.5166 -0.0235 0.8559
vn 0.4849 -0.1708 0.8578
vn 0.5056 0.1667 -0.8465
vn 0.9840 -0.1736 -0.0399
vn -0.4500 0.3783 -0.8089
vn -0.9631 0.2686 0.0186
vn -0.5224 -0.0694 0.8499
vn 0.4704 -0.3006 0.8297
vn 0.5426 0.2023 -0.8152
vn 0.9776 -0.2104 -0.0099
vn -0.4322 0.4576 -0.7770
vn -0.9527 0.2966 0.0663
vn -0.5057 -0.1128 0.8553
vn 0.4490 -0.3638 0.8161
vn 0.2511 0.9239 0.2888
# 31 vertex normals

vt 2.6012 -5.5535 1.0000
vt 4.6190 -5.5535 1.0000
vt 4.6190 -2.5267 1.0000
vt 2.6012 -2.5267 1.0000
vt 6.6368 -5.5535 1.0000
vt 6.6368 -2.5267 1.0000
vt -5.4702 -5.5535 1.0000
vt -3.4523 -5.5535 1.0000
vt -3.4523 -2.5267 1.0000
vt -5.4702 -2.5267 1.0000
vt -1.4345 -5.5535 1.0000
vt -1.4345 -2.5267 1.0000
vt 0.5833 -5.5535 1.0000
vt 0.5833 -2.5267 1.0000
vt 4.6190 0.5000 1.0000
vt 2.6012 0.5000 1.0000
vt 6.6368 0.5000 1.0000
vt -3.4523 0.5000 1.0000
vt -5.4702 0.5000 1.0000
vt -1.4345 0.5000 1.0000
vt 0.5833 0.5000 1.0000
vt 4.6190 3.5267 1.0000
vt 2.6012 3.5267 1.0000
vt 6.6368 3.5267 1.0000
vt -3.4523 3.5267 1.0000
vt -5.4702 3.5267 1.0000
vt -1.4345 3.5267 1.0000
vt 0.5833 3.5267 1.0000
vt 4.6190 6.5535 1.0000
vt 2.6012 6.5535 1.0000
vt 6.6368 6.5535 1.0000
vt -3.4523 6.5535 1.0000
vt -5.4702 6.5535 1.0000
vt -1.4345 6.5535 1.0000
vt 0.5833 6.5535 1.0000
vt -0.8947 0.7253 0.2500
vt -0.8947 0.2253 0.2500
vt -0.4616 -0.0247 0.2500
vt -0.0286 0.7253 0.2500
vt -0.0286 0.2253 0.2500
vt -0.4616 0.9753 0.2500
# 41 texture coords

g trunk
s 8
f 1/1/1 2/2/2 3/3/3 4/4/4 
f 2/2/2 5/5/5 6/6/6 3/3/3 
f 5/7/5 7/8/7 8/9/8 6/10/6 
f 7/8/7 9/11/9 10/12/10 8/9/8 
f 9/11/9 11/13/11 12/14/12 10/12/10 
f 11/13/11 1/1/1 4/4/4 12/14/12 
f 4/4/4 3/3/3 13/15/13 14/16/14 
f 3/3/3 6/6/6 15/17/15 13/15/13 
f 6/10/6 8/9/8 16/18/16 15/19/15 
f 8/9/8 10/12/10 17/20/17 16/18/16 
f 10/12/10 12/14/12 18/21/18 17/20/17 
f 12/14/12 4/4/4 14/16/14 18/21/18 
f 14/16/14 13/15/13 19/22/19 20/23/20 
f 13/15/13 15/17/15 21/24/21 19/22/19 
f 15/19/15 16/18/16 22/25/22 21/26/21 
f 16/18/16 17/20/17 23/27/23 22/25/22 
f 17/20/17 18/21/18 24/28/24 23/27/23 
f 18/21/18 14/16/14 20/23/20 24/28/24 
f 20/23/20 19/22/19 25/29/25 26/30/26 
f 19/22/19 21/24/21 27/31/27 25/29/25 
f 21/26/21 22/25/22 28/32/28 27/33/27 
f 22/25/22 23/27/23 29/34/29 28/32/28 
f 23/27/23 24/28/24 30/35/30 29/34/29 
f 24/28/24 20/23/20 26/30/26 30/35/30 
s 1
f 25/36/31 27/37/31 28/38/31 30/39/31 
f 28/38/31 29/40/31 30/39/31 
f 26/41/31 25/36/31 30/39/31 
# 25 polygons - 2 triangles

#
# object leaves
#

v  -0.1038 1.5519 1.1703
v  0.0578 1.6671 1.0119
v  -0.2017 1.8179 0.8928
v  -0.3836 1.6202 1.2080
v  0.2358 1.9096 0.7036
v  -0.0192 2.0100 0.5769
v  0.3001 1.9351 0.4709
v  0.1858 1.9458 0.2217
v  -0.4345 1.6671 0.7277
v  -0.4909 1.5519 0.9468
v  -0.2565 1.9096 0.4194
v  -0.0871 1.9351 0.2473
v  -0.7773 1.7466 0.4439
v  -0.5546 1.8183 0.5015
v  -0.5546 1.9636 0.2319
v  -0.9272 1.8389 0.2319
v  -0.1820 1.9863 0.5015
v  -0.1820 2.0830 0.2319
v  0.0406 1.9717 0.4439
v  0.1906 1.9555 0.2319
v  -0.5546 1.8183 -0.0378
v  -0.7773 1.7466 0.0198
v  -0.1820 1.9863 -0.0378
v  0.0406 1.9717 0.0198
v  0.9813 1.9311 0.6523
v  0.8542 1.9600 0.4776
v  0.6798 2.0895 0.6499
v  0.9492 2.0369 0.8759
v  0.5796 2.0512 0.2471
v  0.4111 2.1374 0.4243
v  0.3958 2.0031 0.1610
v  0.1720 1.9651 0.2238
v  0.5404 1.9600 0.8515
v  0.7346 1.9311 0.9464
v  0.2658 2.0512 0.6211
v  0.1491 2.0031 0.4551
v  1.2532 1.6130 -0.1144
v  0.9947 1.7199 -0.1598
v  1.0372 1.8901 0.1549
v  1.4594 1.7057 0.1180
v  0.5769 1.9549 -0.1232
v  0.6144 2.0683 0.1919
v  0.3215 1.9606 -0.0329
v  0.1665 1.9570 0.2311
v  1.0500 1.7199 0.4722
v  1.2966 1.6130 0.3826
v  0.6322 1.9549 0.5088
v  0.3649 1.9606 0.4641
v  0.3601 1.7934 -0.5875
v  0.2350 1.8547 -0.4358
v  0.4440 1.9790 -0.3383
v  0.5787 1.8723 -0.6271
v  0.1003 1.9984 -0.1470
v  0.3094 2.0811 -0.0495
v  0.0645 1.9859 0.0464
v  0.1747 1.9720 0.2393
v  0.6531 1.8547 -0.2408
v  0.6889 1.7934 -0.4342
v  0.5184 1.9984 0.0480
v  0.3933 1.9859 0.1998
v  -0.0581 1.5293 -0.7795
v  -0.1223 1.6511 -0.5489
v  0.1784 1.8107 -0.5771
v  0.1784 1.6015 -0.9621
v  -0.1223 1.9078 -0.1723
v  0.1784 2.0140 -0.1910
v  -0.0581 1.9348 0.0750
v  0.1784 1.9460 0.2429
v  0.4791 1.6511 -0.5489
v  0.4149 1.5293 -0.7795
v  0.4791 1.9078 -0.1723
v  0.4149 1.9348 0.0750
v  -0.6669 1.8423 -0.2120
v  -0.5346 1.8923 -0.0288
v  -0.3587 2.0314 -0.2195
v  -0.6400 1.9432 -0.4555
v  -0.2506 2.0219 0.2095
v  -0.0778 2.1145 0.0162
v  -0.0527 1.9892 0.3033
v  0.1872 1.9612 0.2386
v  -0.2015 1.8923 -0.4258
v  -0.4049 1.8423 -0.5243
v  0.0825 2.0219 -0.1875
v  0.2093 1.9892 -0.0089
v  0.5150 1.7253 1.2920
v  0.5581 1.8068 1.0345
v  0.2530 1.9718 1.0612
v  0.2899 1.8301 1.4826
v  0.5212 1.9975 0.6130
v  0.2161 2.1074 0.6397
v  0.4340 1.9809 0.3669
v  0.1793 1.9625 0.2183
v  -0.0520 1.8068 1.0879
v  0.0352 1.7253 1.3340
v  -0.0889 1.9975 0.6664
v  -0.0458 1.9809 0.4089
# 96 vertices

vn 0.2047 0.7417 0.6388
vn 0.1188 0.7634 0.6350
vn -0.2254 0.8666 0.4452
vn -0.2358 0.8639 0.4451
vn 0.1120 0.9155 0.3865
vn -0.0705 0.9794 0.1894
vn -0.0904 0.9924 0.0839
vn 0.0778 0.9937 -0.0805
vn -0.6480 0.7406 0.1780
vn -0.7546 0.6405 0.1425
vn -0.4556 0.8884 0.0567
vn -0.1581 0.9694 -0.1877
vn -0.3152 0.8087 0.4967
vn -0.3505 0.8369 0.4204
vn -0.3402 0.9400 0.0274
vn -0.3457 0.9382 0.0183
vn -0.1155 0.9500 0.2902
vn -0.0262 0.9991 0.0337
vn 0.0563 0.9978 -0.0363
vn 0.2795 0.9598 0.0271
vn -0.3423 0.8123 -0.4721
vn -0.3818 0.7177 -0.5823
vn -0.1184 0.9230 -0.3662
vn 0.2506 0.9402 -0.2307
vn 0.4495 0.8511 -0.2712
vn 0.4233 0.8851 -0.1936
vn 0.1492 0.9848 0.0894
vn 0.1478 0.9839 0.1001
vn 0.1473 0.9556 -0.2552
vn -0.0915 0.9885 -0.1207
vn -0.1985 0.9728 -0.1192
vn -0.3211 0.8966 -0.3049
vn -0.1533 0.8594 0.4877
vn -0.1817 0.7731 0.6076
vn -0.2689 0.9295 0.2525
vn -0.4624 0.8824 -0.0868
vn 0.3398 0.7781 -0.5283
vn 0.3839 0.8032 -0.4556
vn 0.4168 0.9067 -0.0640
vn 0.4230 0.9045 -0.0554
vn 0.1718 0.9363 -0.3064
vn 0.1098 0.9930 -0.0434
vn 0.0339 0.9989 0.0335
vn -0.1964 0.9805 -0.0101
vn 0.4514 0.7794 0.4345
vn 0.4920 0.6817 0.5414
vn 0.2296 0.9091 0.3475
vn -0.1470 0.9585 0.2445
vn -0.3169 0.8087 -0.4956
vn -0.2329 0.8369 -0.4953
vn 0.1189 0.9400 -0.3199
vn 0.1295 0.9382 -0.3211
vn -0.2142 0.9500 -0.2274
vn -0.0195 0.9991 -0.0380
vn 0.0091 0.9978 0.0664
vn -0.1427 0.9598 0.2419
vn 0.5726 0.8123 -0.1107
vn 0.6891 0.7177 -0.1000
vn 0.3819 0.9230 0.0475
vn 0.1032 0.9402 0.3246
vn -0.4967 0.7416 -0.4509
vn -0.4204 0.7634 -0.4905
vn -0.0274 0.8666 -0.4982
vn -0.0183 0.8639 -0.5034
vn -0.2902 0.9155 -0.2787
vn -0.0337 0.9794 -0.1993
vn 0.0363 0.9924 -0.1178
vn -0.0271 0.9937 0.1086
vn 0.4721 0.7406 -0.4782
vn 0.5823 0.6405 -0.5007
vn 0.3662 0.8884 -0.2769
vn 0.2307 0.9694 0.0835
vn -0.5058 0.8331 0.2239
vn -0.4818 0.8643 0.1445
vn -0.2144 0.9660 -0.1442
vn -0.2130 0.9647 -0.1548
vn -0.2113 0.9564 0.2016
vn 0.0250 0.9976 0.0650
vn 0.1329 0.9890 0.0641
vn 0.2600 0.9317 0.2535
vn 0.0965 0.8391 -0.5354
vn 0.1308 0.7483 -0.6503
vn 0.2067 0.9298 -0.3047
vn 0.4023 0.9148 0.0364
vn 0.5222 0.8087 0.2708
vn 0.4493 0.8369 0.3125
vn 0.0570 0.9400 0.3365
vn 0.0484 0.9382 0.3428
vn 0.2992 0.9500 0.0898
vn 0.0358 0.9991 0.0232
vn -0.0411 0.9978 -0.0529
vn 0.0027 0.9598 -0.2808
vn -0.4405 0.8123 0.3822
vn -0.5468 0.7177 0.4311
vn -0.3545 0.9230 0.1499
vn -0.2517 0.9402 -0.2295
# 96 vertex normals

vt -0.0515 0.6748 0.5000
vt 0.0950 0.4260 0.5000
vt 0.3345 0.6655 0.5000
vt 0.0036 0.9964 0.5000
vt 0.4260 0.0950 0.5000
vt 0.6655 0.3345 0.5000
vt 0.6748 -0.0515 0.5000
vt 0.9964 0.0036 0.5000
vt 0.5740 0.9050 0.5000
vt 0.3252 1.0515 0.5000
vt 0.9050 0.5740 0.5000
vt 1.0515 0.3252 0.5000
# 12 texture coords

g leaves
s 1
f 31/42/32 32/43/33 33/44/34 34/45/35 
f 32/43/33 35/46/36 36/47/37 33/44/34 
f 35/46/36 37/48/38 38/49/39 36/47/37 
f 34/45/35 33/44/34 39/50/40 40/51/41 
f 33/44/34 36/47/37 41/52/42 39/50/40 
f 36/47/37 38/49/39 42/53/43 41/52/42 
f 43/42/44 44/43/45 45/44/46 46/45/47 
f 44/43/45 47/46/48 48/47/49 45/44/46 
f 47/46/48 49/48/50 50/49/51 48/47/49 
f 46/45/47 45/44/46 51/50/52 52/51/53 
f 45/44/46 48/47/49 53/52/54 51/50/52 
f 48/47/49 50/49/51 54/53/55 53/52/54 
f 55/42/56 56/43/57 57/44/58 58/45/59 
f 56/43/57 59/46/60 60/47/61 57/44/58 
f 59/46/60 61/48/62 62/49/63 60/47/61 
f 58/45/59 57/44/58 63/50/64 64/51/65 
f 57/44/58 60/47/61 65/52/66 63/50/64 
f 60/47/61 62/49/63 66/53/67 65/52/66 
f 67/42/68 68/43/69 69/44/70 70/45/71 
f 68/43/69 71/46/72 72/47/73 69/44/70 
f 71/46/72 73/48/74 74/49/75 72/47/73 
f 70/45/71 69/44/70 75/50/76 76/51/77 
f 69/44/70 72/47/73 77/52/78 75/50/76 
f 72/47/73 74/49/75 78/53/79 77/52/78 
f 79/42/80 80/43/81 81/44/82 82/45/83 
f 80/43/81 83/46/84 84/47/85 81/44/82 
f 83/46/84 85/48/86 86/49/87 84/47/85 
f 82/45/83 81/44/82 87/50/88 88/51/89 
f 81/44/82 84/47/85 89/52/90 87/50/88 
f 84/47/85 86/49/87 90/53/91 89/52/90 
f 91/42/92 92/43/93 93/44/94 94/45/95 
f 92/43/93 95/46/96 96/47/97 93/44/94 
f 95/46/96 97/48/98 98/49/99 96/47/97 
f 94/45/95 93/44/94 99/50/100 100/51/101 
f 93/44/94 96/47/97 101/52/102 99/50/100 
f 96/47/97 98/49/99 102/53/103 101/52/102 
f 103/42/104 104/43/105 105/44/106 106/45/107 
f 104/43/105 107/46/108 108/47/109 105/44/106 
f 107/46/108 109/48/110 110/49/111 108/47/109 
f 106/45/107 105/44/106 111/50/112 112/51/113 
f 105/44/106 108/47/109 113/52/114 111/50/112 
f 108/47/109 110/49/111 114/53/115 113/52/114 
f 115/42/116 116/43/117 117/44/118 118/45/119 
f 116/43/117 119/46/120 120/47/121 117/44/118 
f 119/46/120 121/48/122 122/49/123 120/47/121 
f 118/45/119 117/44/118 123/50/124 124/51/125 
f 117/44/118 120/47/121 125/52/126 123/50/124 
f 120/47/121 122/49/123 126/53/127 125/52/126 
# 48 polygons

