# 3ds Max Wavefront OBJ Exporter v0.94b - (c)2007 guruware
# File Created: 30.09.2009 01:46:13

#
# object stairs_updown
#

v  0.0366 0.0501 -0.4921
v  0.0366 0.0501 0.4248
v  0.0366 0.0000 0.4248
v  0.0366 0.0000 -0.4921
v  -0.4921 0.0501 -0.4921
v  -0.4921 0.0000 -0.4921
v  -0.4921 0.0501 0.4505
v  -0.4921 0.0000 0.4921
v  -0.0051 0.0000 0.4247
v  -0.0051 0.0501 0.4247
v  -0.0051 0.0501 -0.4504
v  -0.0051 0.0000 -0.4504
v  -0.4504 0.0501 -0.4504
v  -0.4504 0.0000 -0.4504
v  -0.4504 0.0501 0.4503
v  -0.4504 0.0000 0.4920
v  0.0000 0.0000 0.4921
v  0.4921 0.0000 0.4921
v  0.4921 0.0000 -0.4921
v  0.0000 0.0000 -0.4921
v  0.4984 0.5561 -0.0703
v  0.4984 0.5561 0.0703
v  0.4984 0.4155 0.0703
v  0.4984 0.4155 -0.0703
v  0.4984 0.0000 0.4921
v  -0.0859 0.0000 0.4921
v  -0.0859 0.0000 0.3515
v  0.4984 0.0000 0.3515
v  0.4984 0.9826 -0.4921
v  0.4984 0.9826 -0.3515
v  0.4984 0.8373 -0.3515
v  0.4984 0.8373 -0.4921
v  0.4984 0.8373 -0.2109
v  0.4984 0.6967 -0.2109
v  0.4984 0.6967 -0.3515
v  0.4984 0.6967 -0.0703
v  0.4984 0.5561 -0.2109
v  0.4984 0.1342 0.3515
v  0.4984 0.1342 0.4921
v  0.4984 0.1342 0.2109
v  0.4984 0.2748 0.2109
v  0.4984 0.2748 0.3515
v  0.4984 0.2748 0.0703
v  0.4984 0.4155 0.2109
v  -0.0859 0.9826 -0.3515
v  -0.0859 0.8373 -0.3515
v  -0.0859 0.4155 0.0703
v  -0.0859 0.4155 0.2109
v  -0.0859 0.1342 0.3515
v  -0.0859 0.1342 0.4921
v  -0.0859 0.6967 -0.0703
v  -0.0859 0.5561 -0.0703
v  -0.0859 0.8373 -0.2109
v  -0.0859 0.5561 0.0703
v  -0.0859 0.4155 -0.0703
v  -0.0859 0.9826 -0.4921
v  -0.0859 0.8373 -0.4921
v  -0.0859 0.6967 -0.3515
v  -0.0859 0.6967 -0.2109
v  -0.0859 0.5561 -0.2109
v  -0.0859 0.2748 0.3515
v  -0.0859 0.2748 0.2109
v  -0.0859 0.1342 0.2109
v  -0.0859 0.2748 0.0703
# 64 vertices

vn 1.0000 0.0000 -0.0000
vn 0.0000 0.0000 -1.0000
vn -1.0000 0.0000 -0.0000
vn -1.0000 -0.0000 0.0000
vn 0.0000 0.0000 1.0000
vn 0.0000 -1.0000 -0.0000
vn -0.0000 1.0000 -0.0000
vn 0.0000 1.0000 -0.0000
vn -0.0000 1.0000 0.0000
vn 0.0000 1.0000 0.0000
vn 0.0042 0.0423 0.9991
vn 1.0000 -0.0000 -0.0000
vn 1.0000 0.0000 0.0000
vn 0.0000 -0.0000 1.0000
vn -1.0000 0.0000 0.0000
vn -1.0000 -0.0000 -0.0000
vn -0.0000 0.0000 -1.0000
vn 0.0000 -0.0508 -0.9987
vn -0.0000 -0.0508 -0.9987
vn -0.0000 -0.0532 -0.9986
# 20 vertex normals

vt 0.9995 0.0514 0.5338
vt 0.0688 0.0514 0.5338
vt 0.0688 0.0005 0.5338
vt 0.9995 0.0005 0.5338
vt 0.9995 0.0514 0.9995
vt 0.4662 0.0514 0.9995
vt 0.4662 0.0005 0.9995
vt 0.9995 0.0005 0.9995
vt 0.9572 0.0514 0.0005
vt 0.0005 0.0514 0.0005
vt 0.0005 0.0005 0.0005
vt 0.9995 0.0005 0.0005
vt 0.9310 0.0005 0.4917
vt 0.9310 0.0514 0.4917
vt 0.0429 0.0514 0.4917
vt 0.0429 0.0005 0.4917
vt 0.4917 0.0005 0.9571
vt 0.4917 0.0514 0.9571
vt 0.0426 0.0514 0.9571
vt 0.0426 0.0005 0.9571
vt 0.9571 0.0005 0.0426
vt 0.9571 0.0514 0.0426
vt 0.0429 0.0514 0.0426
vt 0.0007 0.0005 0.0426
vt 0.5083 0.0690 0.0005
vt 0.5083 0.9571 0.0005
vt 0.4662 0.9995 0.0005
vt 0.4662 0.0688 0.0005
vt 0.4917 0.9571 0.0514
vt 0.4917 0.0690 0.0514
vt 0.5338 0.0688 0.0514
vt 0.5338 0.9995 0.0514
vt 0.9574 0.9571 0.0005
vt 0.9995 0.9995 0.0005
vt 0.0426 0.9571 0.0514
vt 0.0005 0.9995 0.0514
vt 0.9574 0.0007 0.0005
vt 0.0426 0.0429 0.0514
vt 0.0005 0.0428 0.0514
vt 0.0426 0.0005 0.0007
vt 0.0426 0.0514 0.0429
vt 0.0005 0.0514 0.0428
vt 0.4968 0.0005 0.0005
vt 0.9932 0.0005 0.0005
vt 0.9932 0.9995 0.0005
vt 0.4968 0.9995 0.0005
vt 0.5714 0.5658 0.9995
vt 0.4286 0.5658 0.9995
vt 0.4286 0.4229 0.9995
vt 0.5714 0.4229 0.9995
vt 0.5898 0.0005 0.0005
vt 0.5898 0.1432 0.0005
vt 0.0005 0.1432 0.0005
vt 0.9995 0.9995 0.9995
vt 0.8568 0.9995 0.9995
vt 0.8568 0.8518 0.9995
vt 0.9995 0.8518 0.9995
vt 0.7141 0.8518 0.9995
vt 0.7141 0.7088 0.9995
vt 0.8568 0.7088 0.9995
vt 0.5714 0.7088 0.9995
vt 0.7141 0.5658 0.9995
vt 0.0005 0.0005 0.9995
vt 0.1432 0.0005 0.9995
vt 0.1432 0.1370 0.9995
vt 0.0005 0.1370 0.9995
vt 0.2859 0.1370 0.9995
vt 0.2859 0.2799 0.9995
vt 0.1432 0.2799 0.9995
vt 0.4286 0.2799 0.9995
vt 0.2859 0.4229 0.9995
vt 0.4102 0.9995 0.8568
vt 0.4102 0.8518 0.8568
vt 0.9995 0.8518 0.8568
vt 0.9995 0.9995 0.8568
vt 0.9995 0.2859 0.4229
vt 0.9995 0.4286 0.4229
vt 0.4102 0.4286 0.4229
vt 0.4102 0.2859 0.4229
vt 0.4102 0.1432 0.1370
vt 0.4102 0.0005 0.1370
vt 0.9995 0.0005 0.1370
vt 0.9995 0.1432 0.1370
vt 0.9995 0.7088 0.5714
vt 0.4102 0.7088 0.5714
vt 0.4102 0.5658 0.5714
vt 0.9995 0.5658 0.5714
vt 0.9995 0.7141 0.8518
vt 0.9995 0.8568 0.8518
vt 0.4102 0.8568 0.8518
vt 0.4102 0.7141 0.8518
vt 0.9995 0.4286 0.5658
vt 0.9995 0.5714 0.5658
vt 0.4102 0.5714 0.5658
vt 0.4102 0.4286 0.5658
vt 0.9995 0.4229 0.4286
vt 0.9995 0.5658 0.4286
vt 0.4102 0.5658 0.4286
vt 0.4102 0.4229 0.4286
vt 0.4286 0.5658 0.4102
vt 0.4286 0.4229 0.4102
vt 0.5714 0.4229 0.4102
vt 0.5714 0.5658 0.4102
vt 0.4102 0.8568 0.9995
vt 0.9995 0.8568 0.9995
vt 0.4102 0.9995 0.9995
vt 0.0005 0.9995 0.4102
vt 0.0005 0.8518 0.4102
vt 0.1432 0.8518 0.4102
vt 0.1432 0.9995 0.4102
vt 0.1432 0.7088 0.4102
vt 0.2859 0.7088 0.4102
vt 0.2859 0.8518 0.4102
vt 0.2859 0.5658 0.4102
vt 0.4286 0.7088 0.4102
vt 0.9995 0.0005 0.4102
vt 0.9995 0.1370 0.4102
vt 0.8568 0.1370 0.4102
vt 0.8568 0.0005 0.4102
vt 0.8568 0.2799 0.4102
vt 0.7141 0.2799 0.4102
vt 0.7141 0.1370 0.4102
vt 0.7141 0.4229 0.4102
vt 0.5714 0.2799 0.4102
vt 0.9995 0.7088 0.7141
vt 0.9995 0.8518 0.7141
vt 0.4102 0.8518 0.7141
vt 0.4102 0.7088 0.7141
vt 0.9995 0.1432 0.2799
vt 0.9995 0.2859 0.2799
vt 0.4102 0.2859 0.2799
vt 0.4102 0.1432 0.2799
vt 0.9995 0.1370 0.0005
vt 0.4102 0.1370 0.0005
vt 0.4102 0.0005 0.0005
vt 0.0005 0.8518 0.9995
vt 0.5898 0.8518 0.9995
vt 0.5898 0.9995 0.9995
vt 0.0005 0.9995 0.9995
vt 0.9995 0.7141 0.7088
vt 0.4102 0.7141 0.7088
vt 0.4102 0.5714 0.7088
vt 0.9995 0.5714 0.7088
vt 0.9995 0.2799 0.1432
vt 0.4102 0.2799 0.1432
vt 0.4102 0.1370 0.1432
vt 0.9995 0.1370 0.1432
vt 0.9995 0.4229 0.2859
vt 0.4102 0.4229 0.2859
vt 0.4102 0.2799 0.2859
vt 0.9995 0.2799 0.2859
vt 0.5898 0.5658 0.7141
vt 0.5898 0.7088 0.8568
vt 0.0005 0.7088 0.8568
vt 0.0005 0.5658 0.7141
vt 0.5898 0.4229 0.5714
vt 0.0005 0.4229 0.5714
vt 0.5898 0.2799 0.4286
vt 0.0005 0.2799 0.4286
vt 0.5898 0.1370 0.2859
vt 0.0005 0.1370 0.2859
vt 0.5898 0.0005 0.1432
vt 0.0005 0.0005 0.1432
# 163 texture coords

g stairs_updown
s 16
f 1/1/1 2/2/1 3/3/1 4/4/1 
s 32
f 5/5/2 1/6/2 4/7/2 6/8/2 
s 64
f 7/9/3 5/10/3 6/11/3 8/12/3 
s 16
f 9/13/4 10/14/4 11/15/4 12/16/4 
s 32
f 12/17/5 11/18/5 13/19/5 14/20/5 
s 64
f 14/21/1 13/22/1 15/23/1 16/24/1 
s 1
f 9/25/6 12/26/6 4/27/6 3/28/6 
f 11/29/7 10/30/8 2/31/8 1/32/7 
f 12/26/6 14/33/6 6/34/6 4/27/6 
f 13/35/9 11/29/7 1/32/7 5/36/9 
f 14/33/6 16/37/6 8/12/6 6/34/6 
f 15/38/10 13/35/9 5/36/9 7/39/8 
s off
f 16/40/11 15/41/11 7/42/11 8/11/11 
s 1
f 17/43/8 18/44/8 19/45/8 20/46/8 
s 16
f 21/47/1 22/48/1 23/49/1 24/50/1 
s 2
f 25/11/6 26/51/6 27/52/6 28/53/6 
s 16
f 29/54/12 30/55/1 31/56/12 32/57/12 
f 31/56/12 33/58/1 34/59/1 35/60/1 
f 34/59/1 36/61/1 21/47/1 37/62/1 
f 25/63/1 28/64/13 38/65/13 39/66/1 
f 38/65/13 40/67/13 41/68/13 42/69/13 
f 41/68/13 43/70/1 23/49/1 44/71/1 
s off
f 45/72/14 46/73/14 31/74/14 30/75/14 
f 44/76/8 23/77/8 47/78/8 48/79/8 
f 49/80/8 50/81/8 39/82/8 38/83/8 
f 36/84/5 51/85/5 52/86/5 21/87/5 
s 16
f 32/57/12 31/56/12 35/60/1 
f 35/60/1 34/59/1 37/62/1 
f 37/62/1 21/47/1 24/50/1 
f 24/50/1 23/49/1 43/70/1 
f 43/70/1 41/68/13 40/67/13 
f 40/67/13 38/65/13 28/64/13 
s off
f 33/88/8 31/89/8 46/90/8 53/91/8 
f 22/92/8 21/93/8 52/94/8 54/95/8 
f 23/96/5 22/97/5 54/98/5 47/99/5 
s 16
f 52/100/3 55/101/3 47/102/3 54/103/3 
s 4
f 45/104/8 30/105/8 29/54/8 56/106/8 
s 16
f 56/107/15 57/108/16 46/109/16 45/110/15 
f 46/109/16 58/111/3 59/112/3 53/113/3 
f 59/112/3 60/114/3 52/100/3 51/115/3 
f 26/116/3 50/117/3 49/118/15 27/119/15 
f 49/118/15 61/120/15 62/121/15 63/122/15 
f 62/121/15 48/123/3 47/102/3 64/124/3 
s off
f 34/125/5 33/126/5 53/127/5 59/128/5 
f 42/129/8 41/130/8 62/131/8 61/132/8 
s 16
f 57/108/16 58/111/3 46/109/16 
f 58/111/3 60/114/3 59/112/3 
f 60/114/3 55/101/3 52/100/3 
f 55/101/3 64/124/3 47/102/3 
f 64/124/3 63/122/15 62/121/15 
f 63/122/15 27/119/15 49/118/15 
s 8
f 39/133/5 50/134/5 26/135/5 25/12/5 
s 32
f 32/136/17 57/137/2 56/138/17 29/139/17 
s off
f 34/140/8 59/141/8 51/142/8 36/143/8 
f 42/144/5 61/145/5 49/146/5 38/147/5 
f 44/148/5 48/149/5 62/150/5 41/151/5 
f 60/152/18 58/153/18 35/154/18 37/155/18 
f 57/137/18 32/136/18 35/154/18 58/153/18 
f 55/156/18 60/152/18 37/155/18 24/157/18 
f 64/158/18 55/156/18 24/157/18 43/159/18 
f 63/160/19 64/158/19 43/159/19 40/161/19 
f 27/162/20 63/160/20 40/161/20 28/163/20 
# 50 polygons - 12 triangles

