# 3ds Max Wavefront OBJ Exporter v0.94b - (c)2007 guruware
# File Created: 30.09.2009 01:44:18

#
# object stairs_down
#

v  0.4984 0.0501 0.4921
v  -0.4921 0.0501 0.4921
v  -0.4921 0.0000 0.4921
v  0.4984 0.0000 0.4921
v  0.4984 0.0501 -0.4472
v  0.4984 0.0000 -0.4921
v  -0.4921 0.0501 -0.4472
v  -0.4921 0.0000 -0.4921
v  -0.4504 0.0000 0.4504
v  -0.4504 0.0501 0.4504
v  0.4566 0.0501 0.4504
v  0.4566 0.0000 0.4504
v  0.4567 0.0501 -0.4055
v  0.4566 0.0000 -0.4504
v  -0.4504 0.0000 -0.4504
v  -0.4504 0.0501 -0.4055
# 16 vertices

vn 0.0000 0.0000 1.0000
vn 1.0000 0.0000 -0.0000
vn -1.0000 -0.0000 0.0000
vn -1.0000 0.0000 -0.0000
vn 0.0000 0.0000 -1.0000
vn 0.0000 -1.0000 -0.0000
vn 0.0000 1.0000 -0.0000
vn -0.0000 1.0000 -0.0000
vn 0.7067 0.0322 -0.7067
vn -0.7067 0.0322 -0.7067
# 10 vertex normals

vt 0.9995 0.9995 0.0005
vt 0.0005 0.9995 0.0005
vt 0.0005 0.0005 0.0005
vt 0.9995 0.0005 0.0005
vt 0.9539 0.9995 0.9995
vt 0.0005 0.9995 0.9995
vt 0.0005 0.0005 0.9995
vt 0.9995 0.0005 0.9995
vt 0.0461 0.9995 0.0005
vt 0.9574 0.0005 0.0429
vt 0.9574 0.9995 0.0429
vt 0.0426 0.9995 0.0429
vt 0.0426 0.0005 0.0429
vt 0.9571 0.0005 0.9574
vt 0.9571 0.9995 0.9574
vt 0.0885 0.9995 0.9574
vt 0.0429 0.0005 0.9574
vt 0.9571 0.0005 0.0426
vt 0.9115 0.9995 0.0426
vt 0.0429 0.9995 0.0426
vt 0.0429 0.0005 0.0426
vt 0.9574 0.0429 0.0005
vt 0.0426 0.0429 0.0005
vt 0.9574 0.0429 0.9995
vt 0.0426 0.0429 0.9995
vt 0.0426 0.9571 0.0005
vt 0.9574 0.9115 0.9995
vt 0.9995 0.9539 0.9995
vt 0.9574 0.9571 0.0005
vt 0.0426 0.9115 0.9995
vt 0.0005 0.9539 0.9995
vt 0.9574 0.9995 0.9115
vt 0.9574 0.0005 0.9571
vt 0.9995 0.9995 0.9539
vt 0.0426 0.0005 0.9571
vt 0.0426 0.9995 0.9115
vt 0.0005 0.9995 0.9539
# 37 texture coords

g stairs_down
s 8
f 1/1/1 2/2/1 3/3/1 4/4/1 
s 16
f 5/5/2 1/6/2 4/7/2 6/8/2 
s 64
f 2/1/3 7/9/3 8/3/3 3/4/4 
s 8
f 9/10/5 10/11/5 11/12/5 12/13/5 
s 16
f 12/14/4 11/15/4 13/16/4 14/17/4 
s 64
f 15/18/2 16/19/2 10/20/2 9/21/2 
s 1
f 9/22/6 12/23/6 4/3/6 3/4/6 
f 11/24/7 10/25/8 2/7/8 1/8/7 
f 12/23/6 14/26/6 6/2/6 4/3/6 
f 13/27/8 11/24/7 1/8/7 5/28/8 
f 15/29/6 9/22/6 3/4/6 8/1/6 
f 10/25/8 16/30/8 7/31/8 2/7/8 
s off
f 16/32/9 15/33/9 8/8/9 7/34/9 
f 14/35/10 13/36/10 5/37/10 6/7/10 
# 14 polygons

